<!-- Generator: Adobe Illustrator 21.1.0, SVG Export Plug-In  -->
<svg version="1.1"
	 xmlns="http://www.w3.org/2000/svg" xmlns:xlink="http://www.w3.org/1999/xlink" xmlns:a="http://ns.adobe.com/AdobeSVGViewerExtensions/3.0/"
	 x="0px" y="0px" width="415.2px" height="201.7px" viewBox="0 0 415.2 201.7" style="enable-background:new 0 0 415.2 201.7;"
	 xml:space="preserve">
<style type="text/css">
	.st0{fill:#DFB62B;}
	.st1{fill:none;stroke:#947328;stroke-width:6.400000e-02;stroke-linecap:round;stroke-linejoin:round;}
	.st2{fill:#947328;}
	.st3{fill:#B52B46;}
	.st4{fill:none;stroke:#947328;stroke-width:6.400000e-02;}
	.st5{fill:#FFE67E;}
	.st6{fill:#FFEB9C;}
	.st7{fill:#00476A;}
	.st8{fill:#FFFFFF;}
	.st9{fill:#003a63;}
</style>
<defs>
</defs>
<path class="st0" d="M75.9,51.1c0,0-9.6-2.5-16.6-2.6c-7-0.1-15,2-16,2c-1.1,0-1.6-0.8-1.6-0.8c-0.8-1-0.6-2.5,0.3-3.5
	c0.1-0.1,0.1-0.1,0.2-0.2c-1-0.2-1.8-1-1.8-2.1c0-0.7,0.4-1.3,0.9-1.7c-0.1-0.2-0.2-0.4-0.3-0.8c-0.2-1,0.4-1.9,0.4-2.4
	c0-0.9-0.2-1.7-0.4-2.6c-1.3-0.1-2.3-1.2-2.3-2.4c0-0.8,0.4-1.5,1.1-1.9c-0.2-0.7-0.4-1.5-0.7-2.4l-0.1-0.4
	c-0.2,0.2-0.5,0.4-0.9,0.4c-0.7,0-1.2-0.6-1.2-1.2c0-0.7,0.5-1.2,1.2-1.2c0.1,0,0.2,0,0.3,0.1c-0.1-0.6-0.3-1.1-0.4-1.7
	c-0.2,0.4-0.6,0.6-1.1,0.6c-0.7,0-1.2-0.5-1.2-1.2c0-0.7,0.5-1.2,1.2-1.2c0.3,0,0.6,0.1,0.8,0.3c-0.1-0.6-0.1-1.2-0.1-1.8
	c0-0.2,0-0.4,0-0.5c-0.2,0.1-0.3,0.1-0.5,0.1c-0.7,0-1.2-0.5-1.2-1.2c0-0.7,0.5-1.2,1.2-1.2c0.3,0,0.6,0.1,0.8,0.3
	c0.2-0.6,0.4-1.1,0.6-1.7c-0.6,0-1.2-0.6-1.2-1.2c0-0.7,0.5-1.2,1.2-1.2c0.5,0,0.9,0.3,1.1,0.7L40,16c0.3-0.3,0.5-0.6,0.8-0.9
	c-0.3-0.2-0.5-0.6-0.5-1c0-0.7,0.5-1.2,1.2-1.2c0.5,0,1,0.4,1.1,0.9c0.5-0.2,1-0.4,1.6-0.5c-0.1-0.2-0.2-0.4-0.2-0.7
	c0-0.7,0.5-1.2,1.2-1.2c0.7,0,1.2,0.5,1.2,1.2c0,0.2-0.1,0.4-0.1,0.5c0.5,0,1.1,0.1,1.6,0.2c-0.1-0.2-0.1-0.4-0.1-0.6
	c0-0.7,0.6-1.2,1.2-1.2c0.7,0,1.2,0.5,1.2,1.2c0,0.5-0.3,0.9-0.7,1.1c0.8,0.3,1.5,0.7,2.3,1.1c-0.2-0.2-0.3-0.5-0.3-0.8
	c0-0.7,0.5-1.2,1.2-1.2c0.7,0,1.2,0.5,1.2,1.2c0,0.7-0.5,1.2-1.2,1.2c-0.1,0-0.1,0-0.2,0c1,0.5,2.1,1,3.2,1.4
	c-0.3-0.2-0.5-0.6-0.5-1c0-0.7,0.5-1.2,1.2-1.2c0.3,0,0.5,0.1,0.7,0.2l0-0.7l0.2,0c-0.4-0.6-0.7-1.4-0.7-2.2c0-1.4,2.7-5.7,2.7-6.3
	c-0.6,0.1-1.7,0.3-2.8,1.3c0-0.2,0-5,0.1-5.3c1.1,1,2.2,1.4,2.7,1.4c0-0.5-0.1-1.8-1.3-3.1c0.3,0,5,0,5.3,0.1
	c-1.3,1.4-1.5,2.8-1.4,3.2C62.4,3.2,63.4,3,64.6,2c0,0.3,0,5-0.1,5.3c-1.1-1-2.1-1.3-2.7-1.4c0.1,0.6,2.5,4.8,2.5,6.2
	c0,1-0.4,1.9-1,2.6l0,1c0.1-0.5,0.6-0.9,1.2-0.9c0.7,0,1.2,0.5,1.2,1.2c0,0.4-0.2,0.8-0.6,1c1.2-0.3,2.2-0.8,3.3-1.3
	c-0.1,0-0.1,0-0.2,0c-0.7,0-1.2-0.5-1.2-1.2c0-0.7,0.5-1.2,1.2-1.2c0.7,0,1.2,0.5,1.2,1.2c0,0.3-0.1,0.6-0.4,0.8
	c0.8-0.4,1.5-0.7,2.3-1c-0.4-0.2-0.7-0.6-0.7-1.1c0-0.7,0.5-1.2,1.2-1.2c0.7,0,1.2,0.5,1.2,1.2c0,0.2-0.1,0.4-0.2,0.6
	c0.5-0.1,1-0.2,1.6-0.2c-0.1-0.2-0.1-0.3-0.1-0.5c0-0.7,0.5-1.2,1.2-1.2c0.7,0,1.2,0.5,1.2,1.2c0,0.2-0.1,0.5-0.2,0.7
	c0.6,0.1,1.1,0.3,1.5,0.5c0.1-0.5,0.6-0.9,1.2-0.9c0.7,0,1.2,0.6,1.2,1.2c0,0.4-0.2,0.8-0.5,1c0.3,0.3,0.5,0.6,0.8,0.9L81,17
	c0.2-0.4,0.6-0.7,1.1-0.7c0.7,0,1.2,0.5,1.2,1.2c0,0.7-0.5,1.2-1.2,1.2c0.3,0.5,0.5,1.1,0.6,1.7c0.2-0.2,0.5-0.3,0.8-0.3
	c0.7,0,1.2,0.6,1.2,1.2c0,0.7-0.5,1.2-1.2,1.2c-0.2,0-0.4,0-0.5-0.1c0,0.2,0,0.4,0,0.5c0,0.6,0,1.2-0.1,1.8c0.2-0.2,0.5-0.3,0.8-0.3
	c0.7,0,1.2,0.5,1.2,1.2c0,0.7-0.5,1.2-1.2,1.2c-0.4,0-0.8-0.3-1-0.6c-0.1,0.6-0.3,1.2-0.4,1.7c0.1,0,0.2,0,0.3,0
	c0.7,0,1.2,0.5,1.2,1.2c0,0.7-0.5,1.2-1.2,1.2c-0.4,0-0.7-0.2-0.9-0.4l-0.1,0.4c-0.4,1.2-0.7,2.2-1,3.1c0.2,0.4,0.4,0.8,0.4,1.3
	c0,0.9-0.6,1.8-1.5,2.1c-0.3,0.9-0.4,1.8-0.5,2.8c0,0.4,0.6,1.4,0.3,2.4c-0.1,0.4-0.2,0.7-0.4,0.9c0.5,0.4,0.8,1,0.8,1.6
	c0,1-0.8,1.9-1.7,2c0.1,0.1,0.1,0.2,0.2,0.3c1,1.2,1,3.1-0.2,3.9C77.1,51.3,75.9,51.1,75.9,51.1 M63.2,19.4l0,3.5
	c0.5-0.2,7.7-3.4,9.8-0.3c0.1,0.2,0.2,0,0.2,0s6-1.2,6.5,3.6l0,0.1c0.1-0.7,0.2-1.3,0.2-2c0-2.4-0.5-3.7-2-5.5
	c-1.3-1.8-2.9-2.5-5.1-2.5C69.3,16.3,67,18.7,63.2,19.4 M40.1,23.9c0,0.8,0.1,1.6,0.2,2.4c0.1,0,0.2,0,0.4,0c0-0.5,0.5-5.2,6.8-3.9
	c0,0,0.1-0.2,0.1-0.2s1.9-3,9.3,0.5l0-3.3c-3.8-0.8-6-3.3-9.5-3.4c-2.2,0-3.8,0.7-5.2,2.4C40.8,20.2,40.2,21.5,40.1,23.9 M56.3,17.1
	c0.2,0.1,0.4,0.1,0.7,0.2l0-0.4C56.8,17,56.5,17,56.3,17.1 M64,17.2l0.5-0.1c-0.1,0-0.4-0.1-0.5-0.1C64.1,17.1,64.1,17.2,64,17.2"/>
<path class="st1" d="M75.9,51.1c0,0-9.6-2.5-16.6-2.6c-7-0.1-15,2-16,2c-1.1,0-1.6-0.8-1.6-0.8c-0.8-1-0.6-2.5,0.3-3.5
	c0.1-0.1,0.1-0.1,0.2-0.2c-1-0.2-1.8-1-1.8-2.1c0-0.7,0.4-1.3,0.9-1.7c-0.1-0.2-0.2-0.4-0.3-0.8c-0.2-1,0.4-1.9,0.4-2.4
	c0-0.9-0.2-1.7-0.4-2.6c-1.3-0.1-2.3-1.2-2.3-2.4c0-0.8,0.4-1.5,1.1-1.9c-0.2-0.7-0.4-1.5-0.7-2.4l-0.1-0.4
	c-0.2,0.2-0.5,0.4-0.9,0.4c-0.7,0-1.2-0.6-1.2-1.2c0-0.7,0.5-1.2,1.2-1.2c0.1,0,0.2,0,0.3,0.1c-0.1-0.6-0.3-1.1-0.4-1.7
	c-0.2,0.4-0.6,0.6-1.1,0.6c-0.7,0-1.2-0.5-1.2-1.2c0-0.7,0.5-1.2,1.2-1.2c0.3,0,0.6,0.1,0.8,0.3c-0.1-0.6-0.1-1.2-0.1-1.8
	c0-0.2,0-0.4,0-0.5c-0.2,0.1-0.3,0.1-0.5,0.1c-0.7,0-1.2-0.5-1.2-1.2c0-0.7,0.5-1.2,1.2-1.2c0.3,0,0.6,0.1,0.8,0.3
	c0.2-0.6,0.4-1.1,0.6-1.7c-0.6,0-1.2-0.6-1.2-1.2c0-0.7,0.5-1.2,1.2-1.2c0.5,0,0.9,0.3,1.1,0.7L40,16c0.3-0.3,0.5-0.6,0.8-0.9
	c-0.3-0.2-0.5-0.6-0.5-1c0-0.7,0.5-1.2,1.2-1.2c0.5,0,1,0.4,1.1,0.9c0.5-0.2,1-0.4,1.6-0.5c-0.1-0.2-0.2-0.4-0.2-0.7
	c0-0.7,0.5-1.2,1.2-1.2c0.7,0,1.2,0.5,1.2,1.2c0,0.2-0.1,0.4-0.1,0.5c0.5,0,1.1,0.1,1.6,0.2c-0.1-0.2-0.1-0.4-0.1-0.6
	c0-0.7,0.6-1.2,1.2-1.2c0.7,0,1.2,0.5,1.2,1.2c0,0.5-0.3,0.9-0.7,1.1c0.8,0.3,1.5,0.7,2.3,1.1c-0.2-0.2-0.3-0.5-0.3-0.8
	c0-0.7,0.5-1.2,1.2-1.2c0.7,0,1.2,0.5,1.2,1.2c0,0.7-0.5,1.2-1.2,1.2c-0.1,0-0.1,0-0.2,0c1,0.5,2.1,1,3.2,1.4
	c-0.3-0.2-0.5-0.6-0.5-1c0-0.7,0.5-1.2,1.2-1.2c0.3,0,0.5,0.1,0.7,0.2l0-0.7l0.2,0c-0.4-0.6-0.7-1.4-0.7-2.2c0-1.4,2.7-5.7,2.7-6.3
	c-0.6,0.1-1.7,0.3-2.8,1.3c0-0.2,0-5,0.1-5.3c1.1,1,2.2,1.4,2.7,1.4c0-0.5-0.1-1.8-1.3-3.1c0.3,0,5,0,5.3,0.1
	c-1.3,1.4-1.5,2.8-1.4,3.2C62.4,3.2,63.4,3,64.6,2c0,0.3,0,5-0.1,5.3c-1.1-1-2.1-1.3-2.7-1.4c0.1,0.6,2.5,4.8,2.5,6.2
	c0,1-0.4,1.9-1,2.6l0,1c0.1-0.5,0.6-0.9,1.2-0.9c0.7,0,1.2,0.5,1.2,1.2c0,0.4-0.2,0.8-0.6,1c1.2-0.3,2.2-0.8,3.3-1.3
	c-0.1,0-0.1,0-0.2,0c-0.7,0-1.2-0.5-1.2-1.2c0-0.7,0.5-1.2,1.2-1.2c0.7,0,1.2,0.5,1.2,1.2c0,0.3-0.1,0.6-0.4,0.8
	c0.8-0.4,1.5-0.7,2.3-1c-0.4-0.2-0.7-0.6-0.7-1.1c0-0.7,0.5-1.2,1.2-1.2c0.7,0,1.2,0.5,1.2,1.2c0,0.2-0.1,0.4-0.2,0.6
	c0.5-0.1,1-0.2,1.6-0.2c-0.1-0.2-0.1-0.3-0.1-0.5c0-0.7,0.5-1.2,1.2-1.2c0.7,0,1.2,0.5,1.2,1.2c0,0.2-0.1,0.5-0.2,0.7
	c0.6,0.1,1.1,0.3,1.5,0.5c0.1-0.5,0.6-0.9,1.2-0.9c0.7,0,1.2,0.6,1.2,1.2c0,0.4-0.2,0.8-0.5,1c0.3,0.3,0.5,0.6,0.8,0.9L81,17
	c0.2-0.4,0.6-0.7,1.1-0.7c0.7,0,1.2,0.5,1.2,1.2c0,0.7-0.5,1.2-1.2,1.2c0.3,0.5,0.5,1.1,0.6,1.7c0.2-0.2,0.5-0.3,0.8-0.3
	c0.7,0,1.2,0.6,1.2,1.2c0,0.7-0.5,1.2-1.2,1.2c-0.2,0-0.4,0-0.5-0.1c0,0.2,0,0.4,0,0.5c0,0.6,0,1.2-0.1,1.8c0.2-0.2,0.5-0.3,0.8-0.3
	c0.7,0,1.2,0.5,1.2,1.2c0,0.7-0.5,1.2-1.2,1.2c-0.4,0-0.8-0.3-1-0.6c-0.1,0.6-0.3,1.2-0.4,1.7c0.1,0,0.2,0,0.3,0
	c0.7,0,1.2,0.5,1.2,1.2c0,0.7-0.5,1.2-1.2,1.2c-0.4,0-0.7-0.2-0.9-0.4l-0.1,0.4c-0.4,1.2-0.7,2.2-1,3.1c0.2,0.4,0.4,0.8,0.4,1.3
	c0,0.9-0.6,1.8-1.5,2.1c-0.3,0.9-0.4,1.8-0.5,2.8c0,0.4,0.6,1.4,0.3,2.4c-0.1,0.4-0.2,0.7-0.4,0.9c0.5,0.4,0.8,1,0.8,1.6
	c0,1-0.8,1.9-1.7,2c0.1,0.1,0.1,0.2,0.2,0.3c1,1.2,1,3.1-0.2,3.9C77.1,51.3,75.9,51.1,75.9,51.1z M63.2,19.4l0,3.5
	c0.5-0.2,7.7-3.4,9.8-0.3c0.1,0.2,0.2,0,0.2,0s6-1.2,6.5,3.6l0,0.1c0.1-0.7,0.2-1.3,0.2-2c0-2.4-0.5-3.7-2-5.5
	c-1.3-1.8-2.9-2.5-5.1-2.5C69.3,16.3,67,18.7,63.2,19.4z M40.1,23.9c0,0.8,0.1,1.6,0.2,2.4c0.1,0,0.2,0,0.4,0c0-0.5,0.5-5.2,6.8-3.9
	c0,0,0.1-0.2,0.1-0.2s1.9-3,9.3,0.5l0-3.3c-3.8-0.8-6-3.3-9.5-3.4c-2.2,0-3.8,0.7-5.2,2.4C40.8,20.2,40.2,21.5,40.1,23.9z
	 M56.3,17.1c0.2,0.1,0.4,0.1,0.7,0.2l0-0.4C56.8,17,56.5,17,56.3,17.1z M64,17.2l0.5-0.1c-0.1,0-0.4-0.1-0.5-0.1
	C64.1,17.1,64.1,17.2,64,17.2z"/>
<path class="st2" d="M78.2,36c-0.8,0-1.5-0.7-1.5-1.5c0-0.8,0.7-1.5,1.5-1.5c0.8,0,1.5,0.7,1.5,1.5C79.7,35.3,79,36,78.2,36"/>
<path class="st2" d="M60.1,17.3c0.4,0,0.7,0.3,0.7,0.7c0,0.4-0.3,0.7-0.7,0.7c-0.4,0-0.7-0.3-0.7-0.7C59.5,17.5,59.8,17.3,60.1,17.3
	"/>
<path class="st2" d="M59.5,15.7c0-0.4,0.3-0.7,0.7-0.7c0.4,0,0.7,0.3,0.7,0.7c0,0.4-0.3,0.7-0.7,0.7C59.8,16.4,59.5,16.1,59.5,15.7"
	/>
<path class="st2" d="M60.1,19.7c0.4,0,0.7,0.3,0.7,0.7c0,0.4-0.3,0.7-0.7,0.7c-0.4,0-0.7-0.3-0.7-0.7C59.4,19.9,59.7,19.6,60.1,19.7
	"/>
<path class="st2" d="M60.1,22.4c0.4,0,0.7,0.3,0.7,0.7c0,0.4-0.3,0.7-0.7,0.7c-0.4,0-0.7-0.3-0.7-0.7C59.4,22.6,59.7,22.4,60.1,22.4
	"/>
<path class="st2" d="M60,24.7c0.4,0,0.7,0.3,0.7,0.7c0,0.4-0.3,0.7-0.7,0.7c-0.4,0-0.7-0.3-0.7-0.7C59.4,25,59.7,24.7,60,24.7"/>
<path class="st2" d="M59.8,29.9c0.8,0,1.5,0.7,1.5,1.5c0,0.8-0.7,1.5-1.5,1.5c-0.8,0-1.5-0.7-1.5-1.5C58.3,30.6,59,29.9,59.8,29.9"
	/>
<path class="st3" d="M63.1,26.8C63,26.7,63.2,26.7,63.1,26.8l0-2.5c0.1-0.1,0.1-0.1,0.3-0.2c6-2.8,8-1.2,8-1.2
	c-0.1-0.1-0.1,1.3,0.7,1.1c5.9-1.4,6.3,2,6.3,2.4c-0.4-0.1-0.6-0.2-0.8-0.2c-0.2,0-0.1,2.6-0.3,2.5c-0.4,0-0.5,0-0.8,0
	c0.9,1.3,0.8,2.7,0.7,3.5c-0.3,0.1-0.6,0.3-0.8,0.5c-0.5-0.4-1.1-1.1-1.4-1.4c-0.4,1.3-0.7,2.9-1.4,4.2c0.7-0.1,1.6-0.2,2.3-0.1
	c0.1,0.3,0.3,0.5,0.5,0.7c-0.6,1.2-2.4,2.1-3.6,1.4c0,0.1-0.1-0.8-0.1-0.8c-0.4-0.3-2.2-0.3-2.1-1.6c0.1-0.9,0.4-0.4,0.5-1
	c0.1-0.6-0.5-0.4-0.5-0.8c0-0.3,0.3-0.5,0.6-0.5c0.4,0,0.7,0.5,0.6,1c-0.1,0.8,0.3,1.2,0.5,1.2c0.3,0.1,0.3-0.8,0.4-1.4
	c0.4-1.1,0.9-1.7,0.9-2.8c0-0.6-0.6-1.1-0.9-1.2c-0.2-0.1-0.9-0.4-2.4,0.6c0-0.1,0.1-2.8,0.1-3.6c0-0.5-0.4-1.9-0.8-1.9
	c-0.4,0-0.9,1.1-1,1.5c-0.2,0.8-0.4,3.7-0.5,3.8c-1.2-1.2-1.9-1.3-2.1-1.3c-0.2,0-1,0.4-1.1,1c-0.2,1.1,0.1,1.8,0.2,2.9
	c0.1,0.6-0.4,1.6-0.2,1.5c0.2,0,0.7-0.2,0.9-1c0.1-0.4,0.5-0.9,1-0.8c0.3,0.1,0.4,0.3,0.4,0.6c-0.1,0.5-0.7,0.2-0.8,0.8
	c-0.1,0.6,0.5,0.1,0.3,1c-0.2,1.3-1.7,0.1-2.2,0.1l0,0.9c-1.8,0-3.6-1.5-3.3-3.3c1-0.2,1.8,0.3,2.6,0.6c-0.4-1.4,0.1-3.4,0.1-4.7
	c-0.6,0.2-2,1.5-2.5,1.5c-0.2,0-0.4,0-0.6-0.1C60.9,29.9,61,28.2,63.1,26.8"/>
<path class="st1" d="M63.1,26.8C63,26.7,63.2,26.7,63.1,26.8l0-2.5c0.1-0.1,0.1-0.1,0.3-0.2c6-2.8,8-1.2,8-1.2
	c-0.1-0.1-0.1,1.3,0.7,1.1c5.9-1.4,6.3,2,6.3,2.4c-0.4-0.1-0.6-0.2-0.8-0.2c-0.2,0-0.1,2.6-0.3,2.5c-0.4,0-0.5,0-0.8,0
	c0.9,1.3,0.8,2.7,0.7,3.5c-0.3,0.1-0.6,0.3-0.8,0.5c-0.5-0.4-1.1-1.1-1.4-1.4c-0.4,1.3-0.7,2.9-1.4,4.2c0.7-0.1,1.6-0.2,2.3-0.1
	c0.1,0.3,0.3,0.5,0.5,0.7c-0.6,1.2-2.4,2.1-3.6,1.4c0,0.1-0.1-0.8-0.1-0.8c-0.4-0.3-2.2-0.3-2.1-1.6c0.1-0.9,0.4-0.4,0.5-1
	c0.1-0.6-0.5-0.4-0.5-0.8c0-0.3,0.3-0.5,0.6-0.5c0.4,0,0.7,0.5,0.6,1c-0.1,0.8,0.3,1.2,0.5,1.2c0.3,0.1,0.3-0.8,0.4-1.4
	c0.4-1.1,0.9-1.7,0.9-2.8c0-0.6-0.6-1.1-0.9-1.2c-0.2-0.1-0.9-0.4-2.4,0.6c0-0.1,0.1-2.8,0.1-3.6c0-0.5-0.4-1.9-0.8-1.9
	c-0.4,0-0.9,1.1-1,1.5c-0.2,0.8-0.4,3.7-0.5,3.8c-1.2-1.2-1.9-1.3-2.1-1.3c-0.2,0-1,0.4-1.1,1c-0.2,1.1,0.1,1.8,0.2,2.9
	c0.1,0.6-0.4,1.6-0.2,1.5c0.2,0,0.7-0.2,0.9-1c0.1-0.4,0.5-0.9,1-0.8c0.3,0.1,0.4,0.3,0.4,0.6c-0.1,0.5-0.7,0.2-0.8,0.8
	c-0.1,0.6,0.5,0.1,0.3,1c-0.2,1.3-1.7,0.1-2.2,0.1l0,0.9c-1.8,0-3.6-1.5-3.3-3.3c1-0.2,1.8,0.3,2.6,0.6c-0.4-1.4,0.1-3.4,0.1-4.7
	c-0.6,0.2-2,1.5-2.5,1.5c-0.2,0-0.4,0-0.6-0.1C60.9,29.9,61,28.2,63.1,26.8z"/>
<polygon class="st2" points="61.6,26.1 61.7,14.2 62.2,14.2 62.1,26.1 "/>
<path class="st3" d="M69.1,43c-0.1,0.6-0.8,0.9-1.7,0.8c-0.8-0.1-1.4-0.7-1.3-1.2c0.1-0.6,0.8-0.9,1.7-0.8
	C68.6,41.9,69.1,42.5,69.1,43"/>
<rect x="59" y="40" transform="matrix(1.139923e-02 -0.9999 0.9999 1.139923e-02 17.3721 101.292)" class="st3" width="1.9" height="3.8"/>
<path class="st3" d="M53.4,42.4c0.1,0.6-0.6,1.1-1.4,1.2c-0.8,0.1-1.6-0.4-1.6-1c-0.1-0.6,0.6-1.2,1.4-1.2
	C52.6,41.3,53.3,41.8,53.4,42.4"/>
<path class="st3" d="M43.9,42.9c0.8-0.2,1.5,0.2,1.7,0.7c0.2,0.6-0.3,1.1-1.1,1.3c-0.8,0.2-1.5-0.2-1.7-0.7
	C42.6,43.7,43.1,43.1,43.9,42.9"/>
<path class="st3" d="M74.9,45.2c-0.8-0.2-1.3-0.9-1.1-1.4c0.2-0.6,1.1-0.8,1.9-0.6c0.8,0.2,1.3,0.9,1.1,1.4
	C76.6,45.2,75.8,45.5,74.9,45.2"/>
<path class="st2" d="M60.5,3.3c0.6,0,1.1,0.5,1.1,1.1c0,0.6-0.5,1.1-1.1,1.1c-0.6,0-1.1-0.5-1.1-1.1C59.4,3.8,59.9,3.3,60.5,3.3"/>
<path class="st2" d="M57.6,11.3c0.3-0.3,1.4-0.1,1.8-0.3c0.3-0.1,0.2-1.8,0.2-2.2c0-0.4,0.3-0.8,0.8-0.7c0.4,0,0.8,0.3,0.7,0.8
	c0,0.4-0.2,2.1,0.2,2.2c0.4,0.2,1.5,0,1.8,0.3c0.3,0.3,0.3,0.8,0,1.1C63,12.6,62,12.5,62,12.5l-3.4,0c0,0-0.9,0-1.1-0.1
	C57.3,12,57.3,11.6,57.6,11.3"/>
<polygon class="st2" points="58.6,14.1 58.5,26.1 58,26.1 58.1,14.1 "/>
<path class="st3" d="M58.5,29.9c-0.2,0.1-0.4,0-0.6,0.1c-0.5,0-1.9-1.3-2.5-1.5c-0.1,1.3,0.5,3.6,0.2,5.1c0.8-0.3,1.9-1.4,2.8-0.9
	c0.1,2.1-2.2,3.6-3.6,3.3l0-1.1c-0.5-0.1-2,1.1-2.2-0.2c-0.1-0.9,0.4-0.4,0.3-1c-0.1-0.6-0.7-0.3-0.7-0.8c0-0.3,0.1-0.5,0.4-0.6
	c0.4-0.1,0.9,0.4,1,0.8c0.1,0.8,0.6,1,0.8,1.1c0.3,0-0.2-0.9-0.1-1.5c0.1-1.1,0.5-1.8,0.3-2.9c-0.1-0.6-0.9-1-1.1-1
	c-0.2,0-0.9,0.1-2.1,1.3c-0.1-0.1-0.2-3.1-0.4-3.9c-0.1-0.5-0.6-1.6-1-1.6c-0.5,0-0.9,1.2-0.9,1.7c0,0.9,0.1,3.7,0.1,3.8
	c-1.4-1-2.2-0.7-2.4-0.7c-0.2,0.1-0.9,0.6-0.9,1.2c0,1.1,0.5,1.8,0.8,2.8c0.2,0.6,0.1,1.4,0.4,1.4c0.2-0.1,0.6-0.4,0.5-1.2
	c0-0.4,0.2-1,0.6-1c0.3,0,0.5,0.2,0.6,0.6c0,0.5-0.6,0.2-0.5,0.8c0.1,0.6,0.4,0.1,0.5,1c0,1.3-1.7,1.3-2.1,1.6c0,0,0,0.9-0.1,0.8
	c-1.1,0.6-2.7-0.1-3.4-1.2l-0.1-0.4c0.2-0.2,0.4-0.4,0.5-0.7c0.8-0.1,1.6,0,2.3,0.2c-0.7-1.3-1-2.9-1.3-4.2
	c-0.4,0.2-0.9,0.9-1.4,1.3c-0.2-0.2-0.5-0.4-0.8-0.5C42,31,42,29.5,43.1,28.3c-0.3,0-0.7,0-1.1,0c-0.1,0-0.1-1.6-0.1-2.2
	c0.3-4,6.5-2.4,6.6-2.5c0.1,0,0.8,0,0.6-0.8c0-0.1-0.1-0.2-0.1-0.2c2.9-1.2,7.5,1.2,7.8,1.4l0,2.7C58.9,28.2,58.5,29.9,58.5,29.9"/>
<path class="st1" d="M58.5,29.9c-0.2,0.1-0.4,0-0.6,0.1c-0.5,0-1.9-1.3-2.5-1.5c-0.1,1.3,0.5,3.6,0.2,5.1c0.8-0.3,1.9-1.4,2.8-0.9
	c0.1,2.1-2.2,3.6-3.6,3.3l0-1.1c-0.5-0.1-2,1.1-2.2-0.2c-0.1-0.9,0.4-0.4,0.3-1c-0.1-0.6-0.7-0.3-0.7-0.8c0-0.3,0.1-0.5,0.4-0.6
	c0.4-0.1,0.9,0.4,1,0.8c0.1,0.8,0.6,1,0.8,1.1c0.3,0-0.2-0.9-0.1-1.5c0.1-1.1,0.5-1.8,0.3-2.9c-0.1-0.6-0.9-1-1.1-1
	c-0.2,0-0.9,0.1-2.1,1.3c-0.1-0.1-0.2-3.1-0.4-3.9c-0.1-0.5-0.6-1.6-1-1.6c-0.5,0-0.9,1.2-0.9,1.7c0,0.9,0.1,3.7,0.1,3.8
	c-1.4-1-2.2-0.7-2.4-0.7c-0.2,0.1-0.9,0.6-0.9,1.2c0,1.1,0.5,1.8,0.8,2.8c0.2,0.6,0.1,1.4,0.4,1.4c0.2-0.1,0.6-0.4,0.5-1.2
	c0-0.4,0.2-1,0.6-1c0.3,0,0.5,0.2,0.6,0.6c0,0.5-0.6,0.2-0.5,0.8c0.1,0.6,0.4,0.1,0.5,1c0,1.3-1.7,1.3-2.1,1.6c0,0,0,0.9-0.1,0.8
	c-1.1,0.6-2.7-0.1-3.4-1.2l-0.1-0.4c0.2-0.2,0.4-0.4,0.5-0.7c0.8-0.1,1.6,0,2.3,0.2c-0.7-1.3-1-2.9-1.3-4.2
	c-0.4,0.2-0.9,0.9-1.4,1.3c-0.2-0.2-0.5-0.4-0.8-0.5C42,31,42,29.5,43.1,28.3c-0.3,0-0.7,0-1.1,0c-0.1,0-0.1-1.6-0.1-2.2
	c0.3-4,6.5-2.4,6.6-2.5c0.1,0,0.8,0,0.6-0.8c0-0.1-0.1-0.2-0.1-0.2c2.9-1.2,7.5,1.2,7.8,1.4l0,2.7C58.9,28.2,58.5,29.9,58.5,29.9z"
	/>
<path class="st2" d="M41.1,35.5c-0.8,0-1.5-0.7-1.5-1.5c0-0.8,0.7-1.5,1.5-1.5c0.8,0,1.5,0.7,1.5,1.5C42.6,34.9,41.9,35.5,41.1,35.5
	"/>
<path class="st2" d="M76.7,48.2c0-0.7-1.1-1.2-1.1-1.2s-9.6-2.3-16-2.4c-6.4-0.1-15.4,1.7-15.4,1.7s-1,0.3-1,1c0,0.9,1,0.9,1,0.9
	s9-1.8,15.4-1.7c6.4,0.1,16,2.4,16,2.4S76.7,49.1,76.7,48.2"/>
<path class="st3" d="M52.8,46.5c0.9-0.1,1.6-0.4,1.6-0.7c0-0.3-0.8-0.5-1.7-0.5c-0.9,0.1-1.6,0.4-1.6,0.7
	C51.2,46.4,51.9,46.6,52.8,46.5"/>
<path class="st3" d="M67.5,46.8c0.9,0.1,1.7-0.1,1.7-0.4c0-0.3-0.7-0.7-1.6-0.7c-0.9-0.1-1.7,0.1-1.7,0.4
	C65.8,46.4,66.6,46.7,67.5,46.8"/>
<path class="st3" d="M60,46.1c0.9,0,1.6-0.2,1.6-0.5c0-0.3-0.7-0.6-1.6-0.6c-0.9,0-1.6,0.2-1.6,0.5C58.4,45.7,59.1,46,60,46.1"/>
<path class="st2" d="M77.1,41.6c0-0.7-1.1-1.1-1.1-1.1s-9.6-2.3-16-2.4c-6.4-0.1-15.4,1.7-15.4,1.7s-1,0.3-1,1c0,0.9,1,0.9,1,0.9
	s9-1.8,15.4-1.7c6.4,0.1,16,2.4,16,2.4S77.1,42.6,77.1,41.6"/>
<path class="st3" d="M46.1,47.4c0.9-0.2,1.6-0.6,1.5-0.9c-0.1-0.3-0.9-0.4-1.8-0.2c-0.9,0.2-1.6,0.6-1.5,0.9
	C44.5,47.6,45.2,47.6,46.1,47.4"/>
<path class="st3" d="M73.4,47.8c0.9,0.2,1.7,0.2,1.8-0.1c0.1-0.3-0.6-0.8-1.5-1c-0.9-0.2-1.7-0.2-1.8,0.1
	C71.9,47.2,72.6,47.6,73.4,47.8"/>
<path class="st2" d="M57.6,11.3c0.3-0.3,1.4-0.1,1.8-0.3c0.3-0.1,0.2-1.8,0.2-2.2c0-0.4,0.3-0.8,0.8-0.7c0.4,0,0.8,0.3,0.7,0.8
	c0,0.4-0.2,2.1,0.2,2.2c0.4,0.2,1.5,0,1.8,0.3c0.3,0.3,0.3,0.8,0,1.1C63,12.6,62,12.5,62,12.5l-3.4,0c0,0-0.9,0-1.1-0.1
	C57.3,12,57.3,11.6,57.6,11.3"/>
<path class="st2" d="M76.7,48.2c0-0.7-1.1-1.2-1.1-1.2s-9.6-2.3-16-2.4c-6.4-0.1-15.4,1.7-15.4,1.7s-1,0.3-1,1c0,0.9,1,0.9,1,0.9
	s9-1.8,15.4-1.7c6.4,0.1,16,2.4,16,2.4S76.7,49.1,76.7,48.2"/>
<path class="st3" d="M52.8,46.5c0.9-0.1,1.6-0.4,1.6-0.7c0-0.3-0.8-0.5-1.7-0.5c-0.9,0.1-1.6,0.4-1.6,0.7
	C51.2,46.4,51.9,46.6,52.8,46.5"/>
<path class="st3" d="M67.5,46.8c0.9,0.1,1.7-0.1,1.7-0.4c0-0.3-0.7-0.7-1.6-0.7c-0.9-0.1-1.7,0.1-1.7,0.4
	C65.8,46.4,66.6,46.7,67.5,46.8"/>
<path class="st3" d="M60,46.1c0.9,0,1.6-0.2,1.6-0.5c0-0.3-0.7-0.6-1.6-0.6c-0.9,0-1.6,0.2-1.6,0.5C58.4,45.7,59.1,46,60,46.1"/>
<path class="st3" d="M46.1,47.4c0.9-0.2,1.6-0.6,1.5-0.9c-0.1-0.3-0.9-0.4-1.8-0.2c-0.9,0.2-1.6,0.6-1.5,0.9
	C44.5,47.6,45.2,47.6,46.1,47.4"/>
<path class="st3" d="M73.4,47.8c0.9,0.2,1.7,0.2,1.8-0.1c0.1-0.3-0.6-0.8-1.5-1c-0.9-0.2-1.7-0.2-1.8,0.1
	C71.9,47.2,72.6,47.6,73.4,47.8"/>
<path class="st0" d="M119.1,135.8c0,0-0.9,0.3-2.3,0.9c7-7.6,2.8-17.7,2.8-17.7l-0.1,0.1c1.6-4.6,0.6-9-0.2-11.4
	c2.6-8.9-2.2-14.3-2.2-14.3s0,0-0.1,0.1c0.2-6.3-3.7-11-3.8-11.1l-1.2-1.5c-1-6-5.5-9.9-8.3-11.2l-2-1l-0.4,2.3c0,0.1-0.2,1.6,0,3.6
	c-0.9-0.6-1.6-0.9-1.6-0.9l-2-0.9l-0.3,2.1c0,0.4-0.9,8.1,4.9,13.8c-0.4,1.3-2.3,9.3,3.6,15.7c0,0,0,0,0,0c-2.7,2.8-2.8,7.5-2.8,7.5
	s-6.5,8.6-1.6,17.9c-0.3,0.6-1,1.4-1.3,2l-4.8-3.6l-0.9,0.3c-6.7,10.7-20.6,18.9-34.1,19c-13.6-0.1-26.3-8.5-32.9-19.3l-2-0.1
	l-4.8,3.6c-0.4-0.6-1-1.4-1.3-2c5-9.3-1.6-17.9-1.6-17.9s-0.1-4.7-2.8-7.5c0,0,0,0,0,0c6-6.4,4-14.4,3.6-15.7
	c5.7-5.7,4.9-13.5,4.9-13.8l-0.3-2.1l-2,0.9c0,0-0.7,0.3-1.6,0.9c0.2-2,0-3.4,0-3.6l-0.4-2.3l-2,1C14.5,71,10,74.9,9,80.9l-1.2,1.5
	c-0.1,0.1-4,4.7-3.8,11.1c0,0-0.1-0.1-0.1-0.1s-4.9,5.4-2.2,14.3c-0.8,2.4-1.8,6.9-0.2,11.4L1.3,119c0,0-4.3,10.1,2.8,17.7
	c-1.3-0.6-2.3-0.9-2.3-0.9s-1.3,9.2,5.3,14.9c-0.9-0.2-1.5-0.3-1.5-0.3s0.1,5.6,3.7,10.3c-0.7,0-1.1,0-1.1,0s1.3,6.3,6.6,10.3
	c-1.2,0.1-2,0.2-2,0.2s3.6,9.8,13.3,11c1.9,2,4.6,3.9,8.2,4.7c2.1,2.3,5.7,5.1,10.6,5.5c4.3,0.5,7.8,1.6,13.2,4
	c-1.9,2.3-5.5,4.6-5.5,4.6c0.1,0.2,0.1,0.9,1.1,0.4c2.6-1.3,4.8-2.9,6.8-3.9c2,1,4.2,2.6,6.8,3.9c1,0.5,1-0.2,1.1-0.4
	c0,0-3.6-2.4-5.5-4.6c5.4-2.5,8.9-3.5,13.2-4c4.9-0.4,8.4-3.2,10.6-5.5c3.6-0.8,6.3-2.7,8.2-4.7c9.8-1.1,13.3-11,13.3-11
	s-0.7-0.2-2-0.2c5.2-3.9,6.6-10.3,6.6-10.3s-0.4,0-1.1,0c3.6-4.7,3.7-10.3,3.7-10.3s-0.6,0.1-1.5,0.3
	C120.4,145,119.1,135.8,119.1,135.8 M65.2,148.2l0.5,5c-1.3,0.2-2.6,0.2-3.9,0.3l0-5C62.9,148.5,64.1,148.4,65.2,148.2 M55.7,148.2
	c1.1,0.1,2.3,0.3,3.5,0.3l0,5c-1.3,0-2.6-0.1-4-0.3L55.7,148.2z M21.8,133.6l5-3.7c0.5,0.8,1,1.7,1.6,2.5l-4.5,4
	C23.2,135.4,22.5,134.7,21.8,133.6 M25.4,138l4.4-4c0.6,0.7,1.2,1.6,1.8,2.2l-3.9,4.2C27,139.7,26.2,138.9,25.4,138 M29.5,142
	l3.9-4.1c0.7,0.6,1.4,1.2,2.1,1.8l-3.2,4.5C31.3,143.5,30.4,142.7,29.5,142 M34,145.4l3.2-4.6c0.8,0.6,1.6,1.2,2.5,1.7l-2.5,4.8
	C36.1,146.8,35,146.1,34,145.4 M42.1,149.8c-1-0.4-2-0.9-3-1.4l2.5-4.8c0.8,0.4,1.6,0.9,2.4,1.3L42.1,149.8z M44.1,150.6l1.9-4.9
	c0.8,0.3,1.6,0.7,2.5,0.9l-1.1,5C46.3,151.4,45.2,151,44.1,150.6 M49.9,173c-0.9-1.4-2-2.5-3.1-3.5c1.1,0.2,2.2,0.4,3.3,0.6
	C50,170.9,49.9,171.9,49.9,173 M53,153c-1.2-0.2-2.3-0.4-3.4-0.7l1.1-5.1c1,0.2,2,0.5,3,0.7L53,153z M60.5,191.6
	c-0.3,0-0.6-0.4-0.6-1c0.1-0.5,0.4-2.6,0.6-3.6c0.1,1,0.4,3.1,0.6,3.6C61.1,191.2,60.8,191.5,60.5,191.6 M60.5,181.1
	c-0.9-5.2-4.2-8.5-6.7-10.4c3.3-0.9,9.2-1.1,13.5,0C64.6,172.6,61.4,175.9,60.5,181.1 M67.3,147.8c1-0.2,2-0.4,3-0.7l1.1,5.1
	c-1.1,0.3-2.3,0.5-3.4,0.7L67.3,147.8z M71,173c0-1.1-0.1-2.1-0.2-2.8c1.1-0.2,2.2-0.4,3.3-0.6C72.9,170.5,71.9,171.6,71,173
	 M73.5,151.7l-1.1-5c0.9-0.3,1.6-0.6,2.5-0.9l1.9,4.9C75.7,151,74.6,151.4,73.5,151.7 M78.8,149.8l-1.9-4.9c0.8-0.4,1.6-0.8,2.4-1.3
	l2.5,4.8C80.9,148.9,79.8,149.4,78.8,149.8 M83.8,147.4l-2.5-4.8c0.9-0.5,1.7-1.1,2.5-1.7l3.2,4.6C85.9,146.1,84.9,146.8,83.8,147.4
	 M88.7,144.1l-3.2-4.5c0.7-0.6,1.4-1.1,2.1-1.8l3.9,4.1C90.6,142.7,89.7,143.5,88.7,144.1 M93.1,140.5l-3.9-4.2
	c0.7-0.7,1.2-1.5,1.8-2.2l4.4,4C94.7,138.9,93.9,139.7,93.1,140.5 M96.9,136.4l-4.5-4c0.6-0.8,1.1-1.7,1.6-2.5l5,3.7
	C98.4,134.7,97.8,135.4,96.9,136.4"/>
<path class="st4" d="M119.1,135.8c0,0-0.9,0.3-2.3,0.9c7-7.6,2.8-17.7,2.8-17.7l-0.1,0.1c1.6-4.6,0.6-9-0.2-11.4
	c2.6-8.9-2.2-14.3-2.2-14.3s0,0-0.1,0.1c0.2-6.3-3.7-11-3.8-11.1l-1.2-1.5c-1-6-5.5-9.9-8.3-11.2l-2-1l-0.4,2.3c0,0.1-0.2,1.6,0,3.6
	c-0.9-0.6-1.6-0.9-1.6-0.9l-2-0.9l-0.3,2.1c0,0.4-0.9,8.1,4.9,13.8c-0.4,1.3-2.3,9.3,3.6,15.7c0,0,0,0,0,0c-2.7,2.8-2.8,7.5-2.8,7.5
	s-6.5,8.6-1.6,17.9c-0.3,0.6-1,1.4-1.3,2l-4.8-3.6l-0.9,0.3c-6.7,10.7-20.6,18.9-34.1,19c-13.6-0.1-26.3-8.5-32.9-19.3l-2-0.1
	l-4.8,3.6c-0.4-0.6-1-1.4-1.3-2c5-9.3-1.6-17.9-1.6-17.9s-0.1-4.7-2.8-7.5c0,0,0,0,0,0c6-6.4,4-14.4,3.6-15.7
	c5.7-5.7,4.9-13.5,4.9-13.8l-0.3-2.1l-2,0.9c0,0-0.7,0.3-1.6,0.9c0.2-2,0-3.4,0-3.6l-0.4-2.3l-2,1C14.5,71,10,74.9,9,80.9l-1.2,1.5
	c-0.1,0.1-4,4.7-3.8,11.1c0,0-0.1-0.1-0.1-0.1s-4.9,5.4-2.2,14.3c-0.8,2.4-1.8,6.9-0.2,11.4L1.3,119c0,0-4.3,10.1,2.8,17.7
	c-1.3-0.6-2.3-0.9-2.3-0.9s-1.3,9.2,5.3,14.9c-0.9-0.2-1.5-0.3-1.5-0.3s0.1,5.6,3.7,10.3c-0.7,0-1.1,0-1.1,0s1.3,6.3,6.6,10.3
	c-1.2,0.1-2,0.2-2,0.2s3.6,9.8,13.3,11c1.9,2,4.6,3.9,8.2,4.7c2.1,2.3,5.7,5.1,10.6,5.5c4.3,0.5,7.8,1.6,13.2,4
	c-1.9,2.3-5.5,4.6-5.5,4.6c0.1,0.2,0.1,0.9,1.1,0.4c2.6-1.3,4.8-2.9,6.8-3.9c2,1,4.2,2.6,6.8,3.9c1,0.5,1-0.2,1.1-0.4
	c0,0-3.6-2.4-5.5-4.6c5.4-2.5,8.9-3.5,13.2-4c4.9-0.4,8.4-3.2,10.6-5.5c3.6-0.8,6.3-2.7,8.2-4.7c9.8-1.1,13.3-11,13.3-11
	s-0.7-0.2-2-0.2c5.2-3.9,6.6-10.3,6.6-10.3s-0.4,0-1.1,0c3.6-4.7,3.7-10.3,3.7-10.3s-0.6,0.1-1.5,0.3
	C120.4,145,119.1,135.8,119.1,135.8z M65.2,148.2l0.5,5c-1.3,0.2-2.6,0.2-3.9,0.3l0-5C62.9,148.5,64.1,148.4,65.2,148.2z
	 M55.7,148.2c1.1,0.1,2.3,0.3,3.5,0.3l0,5c-1.3,0-2.6-0.1-4-0.3L55.7,148.2z M21.8,133.6l5-3.7c0.5,0.8,1,1.7,1.6,2.5l-4.5,4
	C23.2,135.4,22.5,134.7,21.8,133.6z M25.4,138l4.4-4c0.6,0.7,1.2,1.6,1.8,2.2l-3.9,4.2C27,139.7,26.2,138.9,25.4,138z M29.5,142
	l3.9-4.1c0.7,0.6,1.4,1.2,2.1,1.8l-3.2,4.5C31.3,143.5,30.4,142.7,29.5,142z M34,145.4l3.2-4.6c0.8,0.6,1.6,1.2,2.5,1.7l-2.5,4.8
	C36.1,146.8,35,146.1,34,145.4z M42.1,149.8c-1-0.4-2-0.9-3-1.4l2.5-4.8c0.8,0.4,1.6,0.9,2.4,1.3L42.1,149.8z M44.1,150.6l1.9-4.9
	c0.8,0.3,1.6,0.7,2.5,0.9l-1.1,5C46.3,151.4,45.2,151,44.1,150.6z M49.9,173c-0.9-1.4-2-2.5-3.1-3.5c1.1,0.2,2.2,0.4,3.3,0.6
	C50,170.9,49.9,171.9,49.9,173z M53,153c-1.2-0.2-2.3-0.4-3.4-0.7l1.1-5.1c1,0.2,2,0.5,3,0.7L53,153z M60.5,191.6
	c-0.3,0-0.6-0.4-0.6-1c0.1-0.5,0.4-2.6,0.6-3.6c0.1,1,0.4,3.1,0.6,3.6C61.1,191.2,60.8,191.5,60.5,191.6z M60.5,181.1
	c-0.9-5.2-4.2-8.5-6.7-10.4c3.3-0.9,9.2-1.1,13.5,0C64.6,172.6,61.4,175.9,60.5,181.1z M67.3,147.8c1-0.2,2-0.4,3-0.7l1.1,5.1
	c-1.1,0.3-2.3,0.5-3.4,0.7L67.3,147.8z M71,173c0-1.1-0.1-2.1-0.2-2.8c1.1-0.2,2.2-0.4,3.3-0.6C72.9,170.5,71.9,171.6,71,173z
	 M73.5,151.7l-1.1-5c0.9-0.3,1.6-0.6,2.5-0.9l1.9,4.9C75.7,151,74.6,151.4,73.5,151.7z M78.8,149.8l-1.9-4.9
	c0.8-0.4,1.6-0.8,2.4-1.3l2.5,4.8C80.9,148.9,79.8,149.4,78.8,149.8z M83.8,147.4l-2.5-4.8c0.9-0.5,1.7-1.1,2.5-1.7l3.2,4.6
	C85.9,146.1,84.9,146.8,83.8,147.4z M88.7,144.1l-3.2-4.5c0.7-0.6,1.4-1.1,2.1-1.8l3.9,4.1C90.6,142.7,89.7,143.5,88.7,144.1z
	 M93.1,140.5l-3.9-4.2c0.7-0.7,1.2-1.5,1.8-2.2l4.4,4C94.7,138.9,93.9,139.7,93.1,140.5z M96.9,136.4l-4.5-4
	c0.6-0.8,1.1-1.7,1.6-2.5l5,3.7C98.4,134.7,97.8,135.4,96.9,136.4z"/>
<path class="st5" d="M13.2,90.3c-0.9-10.6,8.8-15,8.8-15s0.8,6.6-3.7,11.8l-0.2-0.6l-1.9,1.4c-0.5,0.4-1.1,0.9-1.7,1.5
	c0.9-2.2,2.9-6.3,2.9-6.3s1-2.6-0.7-0.3C15.4,84.5,13.8,88.7,13.2,90.3"/>
<path class="st5" d="M12.9,99c0.2-0.7,0.4-1.3,0.6-1.8c1.1-2.5,0.7,0.2,0.7,0.2s-0.3,1.3-0.7,2.8c0.4,0.8,0.8,1.7,1.1,2.8
	c5-6.2,2.6-13.6,2.6-13.6s-4,2.8-5.5,7.9C11.9,97.5,12.4,98.1,12.9,99"/>
<path class="st5" d="M7.2,98.1c-0.1-1.9-0.2-4.4,0.1-5.8c0.5-2.7,0.7,0,0.7,0s-0.1,6.1,0.2,7.7c0,0,0,0.1,0.1,0.1
	c5.8-8.1,0.7-16.4,0.7-16.4S4.4,89,5.7,95.9C6.2,96.5,6.8,97.3,7.2,98.1"/>
<path class="st5" d="M48.5,185.7c-0.3-0.8-0.6-1.5-0.7-2.2c-1.4-1-4.9-3.3-6.3-4.9c-1.8-2,0.4-0.6,0.4-0.6s3.8,3.1,5.6,4.3
	c-0.1-0.6-0.2-1.2-0.2-1.8c-3-1.3-5.1-3.3-6.6-5.4c-1.7-0.6-2.9-0.8-2.9-0.8S39.5,183.5,48.5,185.7"/>
<path class="st5" d="M30.5,174.2c0,0,5,4.2,6.3,4.7c-0.3-0.7-0.6-1.4-0.9-2c-2.9-1.5-4.8-3.6-6.1-5.8c-2.7-1.4-5-1.6-5-1.6
	s0.5,2.8,2.5,5.6c0.6,0.6,1.3,1.2,1.9,1.9c1.6,0.2,3.5,0.5,5.3,1.4c-1.6-1.1-3.4-2.5-4.4-3.6C28.3,172.7,30.5,174.2,30.5,174.2"/>
<path class="st5" d="M23,167.8c0,0,1.9,0.1,4.3,0.8c-1.5-1.2-4.2-3.5-5.3-5c-1.6-2.2,0.5-0.5,0.5-0.5s4.7,4.7,5.9,5.2
	c-0.6-1.5-0.9-2.9-1.1-3.7c-3.9-4.4-9.5-4.9-9.5-4.9s1.1,5,5.3,8.4C23,167.9,23,167.8,23,167.8"/>
<path class="st5" d="M33.1,168.8c0,0,3.6,3,5.4,4.2c0.4,0.1,0.7,0.2,1.1,0.3c-0.4-0.9-0.8-1.7-1.1-2.5c-3.9-4.7-9.6-5.4-9.6-5.4
	s1.3,7,7.7,10.2c-0.5-1.8-0.7-3-0.7-3s0.2,0,0.7,0c-1.5-1.1-3.2-2.3-4-3.3C30.8,167.3,33.1,168.8,33.1,168.8"/>
<path class="st5" d="M49.5,175.5c-3.3-6.6-10.4-7.9-10.4-7.9s0.9,7.9,8.1,11.3c0-0.8,0.1-1.6,0.1-2.2c-1.3-1.3-4.1-4.1-5.1-5.9
	c-1.4-2.3,0.5-0.5,0.5-0.5s3.2,3.9,4.7,5.4c0.1-0.7,0.2-1.1,0.2-1.1S48.5,174.8,49.5,175.5"/>
<path class="st5" d="M14.2,117.7c-0.3-0.8-0.6-1.5-0.9-2.1c-0.6,1.1-1.3,2.1-2.2,3.2c-0.6-0.7-1.2-1.5-1.6-2.2
	c-0.2,1.3-0.3,2.7-0.2,4.3c0.8,1,1.7,2.2,2.5,3.7c-0.2-1.4-0.4-2.8-0.3-3.8c0.1-2.7,0.7-0.1,0.7-0.1s0.3,3,0.7,5.4
	C12.5,122.9,13.2,120,14.2,117.7"/>
<path class="st5" d="M10.8,115.9c-0.2-1.6-0.8-5.9-0.6-8c0.3-2.7,0.7-0.1,0.7-0.1s0.3,6.5,0.7,7.8c5.4-8.5-0.3-16.4-0.3-16.4
	S5.2,107.3,10.8,115.9"/>
<path class="st5" d="M2.8,106.3c0.6,0.5,1.9,1.6,3.3,3.4c-0.6-1.9-1.2-4.3-1.3-5.8c-0.2-2.7,0.7-0.2,0.7-0.2s0.9,4.3,1.6,6.5
	c-0.3-2.6,0.1-5,0.7-7c-1-4.4-3.8-7.3-3.8-7.3S1.4,100.8,2.8,106.3"/>
<path class="st5" d="M4.1,121.5c0.4,0.4,0.9,0.9,1.4,1.4c0.1-0.5,0.2-0.9,0.4-1.3c-0.6-1.7-1.7-5.5-1.9-7.6
	c-0.2-2.7,0.7-0.2,0.7-0.2s0.9,4.4,1.7,6.5c0.4-1.1,0.8-1.7,0.8-1.7s0.3,0.2,0.7,0.6c0-0.8,0.1-1.6,0.2-2.3c-1.1-5.3-5-8.5-5-8.5
	S0.2,115.3,4.1,121.5"/>
<path class="st5" d="M11.4,161.2c1.2,0.2,2.6,0.4,4.1,1c-1.4-1.4-3.3-3.3-4.1-4.6c-1.5-2.3,0.5-0.5,0.5-0.5s4.5,5.2,5.5,5.7
	c-1-2.2-1.3-4.1-1.4-4.6c-3.5-4.5-8.7-5.6-8.7-5.6S7.8,157.4,11.4,161.2"/>
<path class="st5" d="M17.6,171.3c1.3,0.1,2.8,0.3,4.3,0.8c-1.7-1.1-4-2.9-5.1-4.1c-1.8-2,0.4-0.6,0.4-0.6s5.7,4.7,6.5,4.8h0
	c-3.6-9.6-13.6-9.7-13.6-9.7S12,168.5,17.6,171.3"/>
<path class="st5" d="M24.7,180.7c-0.7-0.9-1.2-1.7-1.5-2.2c-1.6-1-3.9-2.5-5.1-3.7c-1.8-1.9,0.3-0.6,0.3-0.6s2.6,2,4.5,3.2
	c0.6-0.2,2.2-0.5,4.2-0.5c-5.1-5.1-12.2-4.2-12.2-4.2S17.9,179.1,24.7,180.7"/>
<path class="st5" d="M32.7,185.2c-0.5-0.7-0.8-1.2-0.8-1.2s0.9-0.4,2.4-0.7c-1.8-0.6-4.1-1.4-5.4-2.1c-2.3-1.4,0.2-0.7,0.2-0.7
	s5.2,2.1,7.1,2.5c0.7-0.1,1.4-0.1,2.1-0.1c-5.1-5.5-12.1-4.6-13.4-4.4c0,0.1,0,0.2,0,0.4C25.8,180,28.3,183.5,32.7,185.2"/>
<path class="st5" d="M42.5,188c0,0,6.3,2.1,7.6,2.1c-6.2-8.1-15.8-5.3-15.8-5.3s5.5,8.2,15.1,6.1c-1.9-0.4-5.4-1.3-7.1-2.2
	C39.9,187.4,42.5,188,42.5,188"/>
<path class="st5" d="M48.8,176.7c0,0-1.8,9.9,6.9,15c-1.1-1.5-3.3-4.7-4-6.7c-1-2.6,0.6-0.4,0.6-0.4s3.2,5.7,4.2,6.6
	C57.5,181.3,48.8,176.7,48.8,176.7"/>
<path class="st5" d="M51.5,171.2c0,0-0.5,2.6,0.2,5.8c2.2,1.8,4.7,4.6,5.7,8.6c0.3,0.2,0.5,0.4,0.8,0.5c-0.8-1.7-2.4-5.2-2.8-7.2
	c-0.5-2.7,0.7-0.3,0.7-0.3s2.2,6.3,3,7.3C60.3,175.8,51.5,171.2,51.5,171.2"/>
<path class="st5" d="M14.1,78.5c0,0-2.2,4.8-2.6,6.5c0,0.1,0.1,0.1,0.1,0.2c0.1-0.1,0.2-0.1,0.2-0.2c1-4.2,3.6-7.3,6-9.3
	c0.4-2.5,0.1-4.3,0.1-4.3S10.8,75,10.5,83c0.1,0.2,0.3,0.5,0.5,1c0.6-1.8,1.6-4.4,2.4-5.7C14.9,76.1,14.1,78.5,14.1,78.5"/>
<path class="st5" d="M5,134.9c-0.6-1.9-1.3-4.5-1.4-6.1c-0.2-2.7,0.7-0.2,0.7-0.2s0.4,1.8,0.8,3.6l0.1-1.1c-0.5-2.1-0.4-4.2-0.2-6
	c-0.9-0.9-1.6-1.9-2.2-2.8c-0.4-0.4-0.7-0.6-0.7-0.6s-2.6,8,3,14.1C5,135.4,5,135.1,5,134.9"/>
<path class="st5" d="M5.8,139.5c-1.5-1-2.7-1.3-2.7-1.3s-0.5,9.7,8.2,13.8c-1.3-1.5-3.3-4-4.1-5.6C6,144,7.8,146,7.8,146
	s3.7,5.2,4.8,6.1c-0.1-1.6-0.3-3-0.7-4.2C8.5,145.5,6.7,142.3,5.8,139.5"/>
<path class="st5" d="M14.9,127.8c0.6,0.4,1.3,0.8,2,1.4c-0.2-1.6-0.6-5.9-0.3-8.1c0.4-2.7,0.7,0,0.7,0l0.4,8.9c0,0,0,0.1,0.1,0.1
	c4.3-7.7-0.1-15.5-0.1-15.5S12.7,120.4,14.9,127.8L14.9,127.8z"/>
<path class="st5" d="M18,145.5c0.8-1.9-1.6-5.6-2-7.8c-0.4-2.7,0.7-0.2,0.7-0.2s2.6,5.2,3.3,6.3c3-9.6-5.9-14.7-5.9-14.7
	S10.3,138.7,18,145.5"/>
<path class="st5" d="M12,137.5c-2.5-3-5.4-4.3-5.4-4.3s-1.1,10.2,8.2,14.6c-1.1-1.3-3.7-4.6-4.6-6.6c-1.1-2.5,0.6-0.4,0.6-0.4
	s3.6,5.5,4.6,6.3c0-0.9-0.1-1.7-0.2-2.5C13.2,142.2,12.3,139.8,12,137.5"/>
<path class="st5" d="M8.5,126c0,0,1,4.8,1.9,7.8c0.4,0.3,0.8,0.7,1.3,1.1c0-2.6,0.5-4.7,0.8-5.7c-1.2-4.8-4.9-8-4.9-8
	s-2.3,5-0.7,10.5l0.3,0.1c0.1,0.1,1.1,0.5,2.4,1.4c-0.6-1.9-1.6-5.1-1.7-7C7.7,123.5,8.5,126,8.5,126"/>
<path class="st5" d="M15.1,107.2c0,0,1.3,2,1.5,5.8l-2.1,3.7l-0.6-1.8C15.3,112.2,15.1,107.2,15.1,107.2"/>
<path class="st5" d="M104.2,82.7c-1.6-2.3-0.7,0.3-0.7,0.3s2,4.1,2.9,6.3c-0.6-0.6-1.2-1.1-1.7-1.5l-1.9-1.4l-0.2,0.6
	c-4.5-5.2-3.7-11.8-3.7-11.8s9.7,4.4,8.8,15C107.1,88.7,105.5,84.5,104.2,82.7"/>
<path class="st5" d="M109.3,97.1c-1.5-5-5.5-7.9-5.5-7.9s-2.4,7.4,2.6,13.6c0.3-1,0.7-2,1.1-2.8c-0.4-1.5-0.7-2.8-0.7-2.8
	s-0.4-2.6,0.7-0.2c0.2,0.5,0.4,1.1,0.6,1.8C108.5,98.1,109,97.5,109.3,97.1"/>
<path class="st5" d="M115.2,95.9c1.4-6.9-3.2-12.2-3.2-12.2s-5.2,8.3,0.6,16.4c0,0,0-0.1,0.1-0.1c0.3-1.6,0.2-7.7,0.2-7.7
	s0.2-2.7,0.7,0c0.3,1.5,0.2,3.9,0.1,5.8C114.2,97.3,114.7,96.5,115.2,95.9"/>
<path class="st5" d="M83.1,174.4c0,0-1.2,0.1-2.9,0.8c-1.4,2.1-3.5,4.1-6.6,5.4c-0.1,0.6-0.1,1.2-0.2,1.8c1.8-1.2,5.6-4.3,5.6-4.3
	s2.2-1.5,0.4,0.6c-1.4,1.6-4.8,3.9-6.3,4.9c-0.2,0.7-0.4,1.5-0.7,2.3C81.4,183.5,83.1,174.4,83.1,174.4"/>
<path class="st5" d="M90.9,174.7c-1,1.1-2.8,2.5-4.4,3.6c1.8-0.8,3.6-1.2,5.3-1.4c0.6-0.7,1.2-1.4,1.9-1.9c2-2.8,2.5-5.6,2.5-5.6
	s-2.3,0.3-5,1.6c-1.3,2.2-3.2,4.3-6.1,5.8c-0.3,0.6-0.6,1.3-0.9,2c1.2-0.5,6.3-4.7,6.3-4.7S92.7,172.7,90.9,174.7"/>
<path class="st5" d="M97.8,168.1c4.2-3.4,5.3-8.4,5.3-8.4s-5.6,0.5-9.5,4.9c-0.2,0.8-0.5,2.2-1.1,3.7c1.1-0.6,5.9-5.2,5.9-5.2
	s2.1-1.7,0.5,0.5c-1.1,1.5-3.8,3.8-5.3,5c2.5-0.8,4.3-0.8,4.3-0.8S97.9,167.9,97.8,168.1"/>
<path class="st5" d="M88.3,169.4c-0.9,1-2.6,2.3-4,3.3c0.4,0,0.7-0.1,0.7-0.1s-0.1,1.2-0.7,3c6.4-3.2,7.7-10.2,7.7-10.2
	s-5.8,0.7-9.6,5.4c-0.3,0.8-0.6,1.6-1.1,2.5c0.4-0.1,0.8-0.2,1.1-0.3c1.9-1.3,5.4-4.2,5.4-4.2S90.1,167.3,88.3,169.4"/>
<path class="st5" d="M73.2,174.5c0,0,0.1,0.4,0.2,1.1c1.5-1.5,4.7-5.4,4.7-5.4s1.9-1.9,0.5,0.5c-1.1,1.8-3.9,4.7-5.1,5.9
	c0.1,0.6,0.1,1.4,0.1,2.2c7.1-3.4,8.1-11.3,8.1-11.3s-7.1,1.3-10.4,7.9C72.5,174.8,73.2,174.5,73.2,174.5"/>
<path class="st5" d="M108,126.1c0.4-2.3,0.7-5.4,0.7-5.4s0.6-2.6,0.7,0.1c0,1-0.1,2.4-0.3,3.8c0.8-1.5,1.7-2.8,2.5-3.7
	c0.2-1.6,0.1-3-0.2-4.3c-0.5,0.7-1,1.4-1.6,2.2c-0.9-1.1-1.6-2.1-2.2-3.2c-0.3,0.6-0.6,1.3-0.9,2.1C107.7,120,108.4,122.9,108,126.1
	"/>
<path class="st5" d="M109.6,99.2c0,0-5.7,8-0.3,16.4c0.5-1.3,0.7-7.8,0.7-7.8s0.4-2.6,0.7,0.1c0.2,2.2-0.3,6.4-0.6,8
	C115.8,107.3,109.6,99.2,109.6,99.2"/>
<path class="st5" d="M116.9,95.9c0,0-2.8,2.8-3.8,7.3c0.7,2,1.1,4.4,0.7,7c0.7-2.2,1.6-6.5,1.6-6.5s0.9-2.5,0.7,0.2
	c-0.1,1.5-0.7,3.9-1.3,5.8c1.4-1.8,2.7-2.9,3.3-3.4C119.5,100.8,116.9,95.9,116.9,95.9"/>
<path class="st5" d="M117.9,108.5c0,0-3.9,3.2-5,8.5c0.1,0.8,0.2,1.5,0.2,2.3c0.4-0.4,0.7-0.6,0.7-0.6s0.4,0.6,0.8,1.7
	c0.7-2.2,1.7-6.5,1.7-6.5s0.8-2.5,0.7,0.2c-0.1,2.1-1.3,5.9-1.9,7.6c0.1,0.4,0.3,0.8,0.4,1.3c0.5-0.5,0.9-1,1.4-1.4
	C120.7,115.3,117.9,108.5,117.9,108.5"/>
<path class="st5" d="M113.6,152.5c0,0-5.2,1.1-8.7,5.6c-0.1,0.5-0.4,2.4-1.4,4.6c1-0.5,5.5-5.7,5.5-5.7s2-1.8,0.5,0.5
	c-0.8,1.3-2.7,3.2-4.1,4.6c1.5-0.5,2.9-0.8,4.1-1C113.1,157.4,113.6,152.5,113.6,152.5"/>
<path class="st5" d="M110.7,162.5c0,0-10,0.1-13.6,9.7h0c0.8,0,6.5-4.8,6.5-4.8s2.2-1.5,0.4,0.6c-1.1,1.2-3.5,3-5.1,4.1
	c1.5-0.5,3-0.7,4.3-0.8C108.9,168.5,110.7,162.5,110.7,162.5"/>
<path class="st5" d="M105.9,172.7c0,0-7-0.9-12.2,4.2c2,0,3.6,0.3,4.2,0.5c1.9-1.2,4.5-3.2,4.5-3.2s2.2-1.3,0.3,0.6
	c-1.1,1.2-3.5,2.7-5.1,3.7c-0.3,0.6-0.8,1.4-1.5,2.3C103,179,105.9,172.7,105.9,172.7"/>
<path class="st5" d="M95.8,178.9c0-0.1,0-0.3,0-0.4c-1.2-0.2-8.3-1-13.4,4.4c0.7,0,1.5,0,2.1,0.1c1.8-0.4,7.1-2.5,7.1-2.5
	s2.6-0.7,0.2,0.7c-1.3,0.7-3.5,1.5-5.4,2.1C88,183.6,89,184,89,184s-0.3,0.5-0.8,1.2C92.6,183.5,95.1,180,95.8,178.9"/>
<path class="st5" d="M78.6,188.7c-1.7,0.9-5.2,1.8-7.1,2.2c9.6,2.1,15.1-6.1,15.1-6.1s-9.6-2.8-15.8,5.3c1.2,0,7.6-2.1,7.6-2.1
	S81.1,187.4,78.6,188.7"/>
<path class="st5" d="M64.4,191.3c1-1,4.2-6.6,4.2-6.6s1.6-2.2,0.6,0.4c-0.7,1.9-2.9,5.2-4,6.7c8.7-5.1,6.9-15,6.9-15
	S63.4,181.3,64.4,191.3"/>
<path class="st5" d="M61.7,185.9c0.8-1,3-7.3,3-7.3s1.2-2.4,0.7,0.3c-0.4,2-2,5.6-2.8,7.2c0.3-0.2,0.6-0.3,0.8-0.5
	c1.1-4,3.5-6.8,5.7-8.6c0.7-3.2,0.2-5.8,0.2-5.8S60.6,175.8,61.7,185.9"/>
<path class="st5" d="M107.4,78.3c0.9,1.3,1.8,3.9,2.4,5.7c0.2-0.4,0.4-0.8,0.5-1c-0.3-7.9-7.5-11.5-7.5-11.5s-0.3,1.8,0.1,4.3
	c2.5,2,5,5.1,6,9.3c0.1,0.1,0.2,0.1,0.2,0.2c0-0.1,0.1-0.1,0.1-0.2c-0.4-1.7-2.6-6.5-2.6-6.5S106,76.1,107.4,78.3"/>
<path class="st5" d="M115.9,134.9c0.6-1.9,1.3-4.5,1.4-6.1c0.2-2.7-0.7-0.2-0.7-0.2s-0.4,1.8-0.8,3.6l-0.1-1.1
	c0.5-2.1,0.4-4.2,0.2-6c0.9-0.9,1.6-1.9,2.2-2.8c0.4-0.4,0.7-0.6,0.7-0.6s2.6,8-3,14.1C115.9,135.4,115.9,135.1,115.9,134.9"/>
<path class="st5" d="M115.1,139.5c1.5-1,2.7-1.3,2.7-1.3s0.5,9.7-8.2,13.8c1.3-1.5,3.3-4,4.1-5.6c1.2-2.4-0.6-0.4-0.6-0.4
	s-3.7,5.2-4.8,6.1c0.1-1.6,0.3-3,0.7-4.2C112.5,145.5,114.2,142.3,115.1,139.5"/>
<path class="st5" d="M106.1,127.8c-0.6,0.4-1.3,0.8-2,1.4c0.2-1.6,0.6-5.9,0.3-8.1c-0.4-2.7-0.7,0-0.7,0l-0.4,8.9c0,0,0,0.1-0.1,0.1
	c-4.3-7.7,0.1-15.5,0.1-15.5S108.2,120.4,106.1,127.8L106.1,127.8z"/>
<path class="st5" d="M106.8,129.1c0,0-8.9,5.2-5.9,14.7c0.8-1.1,3.3-6.3,3.3-6.3s1.1-2.5,0.7,0.2c-0.3,2.1-2.8,5.8-2,7.8
	C110.6,138.7,106.8,129.1,106.8,129.1"/>
<path class="st5" d="M109,137.5c2.5-3,5.4-4.3,5.4-4.3s1.1,10.2-8.2,14.6c1.1-1.3,3.7-4.6,4.6-6.6c1.1-2.5-0.6-0.4-0.6-0.4
	s-3.6,5.5-4.6,6.3c0-0.9,0.1-1.7,0.2-2.5C107.7,142.2,108.6,139.8,109,137.5"/>
<path class="st5" d="M112.4,126c0,0-1,4.8-1.9,7.8c-0.4,0.3-0.8,0.7-1.3,1.1c0-2.6-0.5-4.7-0.8-5.7c1.2-4.8,4.9-8,4.9-8
	s2.3,5,0.7,10.5l-0.3,0.1c-0.1,0.1-1.1,0.5-2.4,1.4c0.6-1.9,1.6-5.1,1.7-7C113.2,123.5,112.4,126,112.4,126"/>
<path class="st5" d="M105.8,107.2c0,0-1.3,2-1.5,5.8l2.1,3.7l0.6-1.8C105.7,112.2,105.8,107.2,105.8,107.2"/>
<path class="st0" d="M60.5,68.1C38.1,68.1,20,86.2,20,108.6c0,22.4,18.1,40.5,40.5,40.5c22.4,0,40.5-18.1,40.5-40.5
	C100.9,86.2,82.8,68.1,60.5,68.1 M60.5,146.5c-21,0-38-17-38-38c0-21,17-38,38-38c21,0,38,17,38,38
	C98.4,129.5,81.4,146.5,60.5,146.5"/>
<path class="st4" d="M60.5,146.5c-21,0-38-17-38-38c0-21,17-38,38-38c21,0,38,17,38,38C98.4,129.5,81.4,146.5,60.5,146.5z
	 M60.5,68.1C38.1,68.1,20,86.2,20,108.6c0,22.4,18.1,40.5,40.5,40.5c22.4,0,40.5-18.1,40.5-40.5C100.9,86.2,82.8,68.1,60.5,68.1z"/>
<path class="st0" d="M95.2,108.6c0,19.2-15.6,34.7-34.7,34.7c-19.2,0-34.7-15.6-34.7-34.7c0-19.2,15.6-34.7,34.7-34.7
	C79.6,73.8,95.2,89.4,95.2,108.6"/>
<circle class="st4" cx="60.5" cy="108.6" r="34.7"/>
<path class="st6" d="M92.9,108.6c0,17.9-14.5,32.4-32.4,32.4c-17.9,0-32.4-14.5-32.4-32.4c0-17.9,14.5-32.4,32.4-32.4
	C78.4,76.2,92.9,90.7,92.9,108.6"/>
<ellipse class="st4" cx="60.5" cy="108.6" rx="32.4" ry="32.4"/>
<path class="st7" d="M88.9,114.8c-0.3,1-1.4,1-1.4,1h-5.4c0.1-0.1,0.2-0.3,0.1-0.6c-0.1-0.5-0.1-1.1-0.1-2.7c0-1.6,0.2-3.3,0.2-3.6
	c0-0.3-0.4-0.8-0.6-1.1c-0.2-0.3-0.3-0.7-0.4-0.9c0-0.3,0.6-0.3,1.2-0.4c0.5-0.1,1.1-0.3,1.1-0.3v-0.3l0.2,0.3
	c0.4,0.3,2.2,0.6,2.2,0.6l0-0.3c0.4,0.5,1,0.5,1,0.5c-0.1-0.1,0-0.4,0-0.4c0.2,0.3,0.7,0.5,0.7,0.5c0.1-0.3,0.1-0.7,0.1-0.7
	c0.2-4.7-5.6-8.1-8.3-8.1c-2.7,0-3.3,1.3-5.4,1.3c-2.1,0-1.6-2.7-1.1-4.3c0.5-1.7,0.6-3,0.4-3.5c-0.3-0.8-1.3-0.8-1.7-0.8
	c-0.5,0-0.6,0.7-1,0.8c-0.3,0.1-1.4,0.7-1.2,0.7c0.6,0.1,1.5,0.3,1.5,0.3s0.7,0.3,0.6,1.2c-0.4,2.1-2.2,2.7-2,6.3
	c0.3,3.8,5,6.3,5.7,6.5c0.7,0.3,1.4,0,1.4,0c0,0.5,0.6,1.1,0.8,1.4c0.2,0.4,0.2,0.8,0.2,1.1c0,0.3,0.1,0.7-0.2,1.5
	c-0.3,0.8-1.3,3-1.4,3.4c-0.2,0.3-0.3,0.4-0.4,0.6c-0.1,0.2-0.4,0.6-0.4,0.6s-0.3-0.1-1.1-0.1c-1,0-1.6,0.5-1.9,0.8h-9.6
	c4.9-0.8,7.3-4.9,7.4-9.1c0-3-0.9-9.5-0.9-9.5h-8.4h-3.5c0-0.1,0-0.1,0-0.2c0-0.5-0.3-0.7-0.6-0.7s-0.5,0.2-0.8,0.2
	c-0.3,0.1-0.5,0-1,0.1c-0.3,0.1-0.6,0.3-0.8,0.5h-1.7l-0.1,0.9c-0.3,0.2-0.7,0.3-0.7,0.3c0-0.7-0.4-2.9-0.3-3.1
	c0.1-0.2,1.4-0.2,1.7-0.2c0.3,0,0.8,0.4,1.2-0.3c0.3-0.6-1.1-1.5-1.1-1.5c-0.2-0.6-1.4-1.1-1.4-1.1c0.7-0.7,0.1-2,0.1-2
	c-0.7,0.3-1.2,1.2-1.2,1.2c-0.3-0.7-1.3-1.3-1.3-1.3c-0.5,1.5,0.3,2.6,0.3,2.6c-0.4,0.5-0.5,1.3-0.6,2.2c-0.1,0.9-0.3,0.8-1.4,1.8
	c-1.1,1-1,2.1-4,3.7c-3.9,2-3.7,4.3-3.7,7.5s-0.3,5.1-1.1,6c-0.8,0.8-3.2,1-5.1,1.2c-1.9,0.2-2.4,0.3-2.6,0.6
	c-0.5,0.5,0.1,0.5,0.1,0.5h2.6h2.9h50.1C89.2,116.2,88.9,114.8,88.9,114.8 M44.2,115.8h-3.7c0.7-0.4,1.3-1.4,1.8-2.8
	c0.6-1.9,1.6-2.1,1.9-2.1c0.3,0,0.4,1.4,0.4,2.2c0,0.7-0.4,1.7-0.4,2.1C44.1,115.4,44.2,115.6,44.2,115.8 M51.2,100.6l0.8-0.5
	c-0.1,1.3-0.3,2.9-0.4,4.3c-0.5-1-1.4-2-1.4-2C50.7,101.7,51.2,100.6,51.2,100.6 M52.4,115.8c-0.4-0.4-1.1-0.7-1.8-0.7
	c-0.9,0-2.2,0.2-3.4,0.2c-1.2,0-1-0.9-1-1.6c0-0.7,0.3-2.5,0.4-3.3c0.1-0.9,0.4-3.1,0.4-3.9c0-0.7,2.4-2.9,2.4-2.9l1.4,1.4
	c0.3,0.3,0.1,0.6,0.1,0.6c-0.4-0.2-0.3,0.3-0.3,0.3c-0.7,0.1,0.3,0.7,0.5,0.7c0.1,0,0.3,0,0.5-0.1l0,0.3c0.1,4.2,2.5,8.2,7.4,9.1
	H52.4z M52,106.7c0-2.9,0.8-9.3,0.8-9.3h3.5c0,0.6,0.5,0.1,0.5,0.1c0,0.4,0.3,0.2,0.4-0.1h3.6h8c0,0,0.9,6.3,0.8,9.3
	c-0.1,4.6-2.9,8.9-8.8,8.9C54.9,115.6,52,111.3,52,106.7 M80.6,115c-0.2,0.2-0.4-0.1-1.4-0.1c-1.3,0-1.8,0.6-2,0.9h-0.5
	c0.4-1.5,0.5-2.1,1.1-3.6c0.6-1.5,1.3-2.6,1.4-2.8c0.1-0.2,0-0.9-0.1-1.3c-0.1-0.4,0-0.8,0-0.8c1.1,0.7,1.4,1.4,1.4,1.4
	c0.1,0.7,0.5,2.2,0.5,3.6C81.2,113.6,80.8,114.8,80.6,115"/>
<path class="st7" d="M67.7,98.9H53.9c0,0-0.6,4.8-0.6,8.1c0,3.3,2,6,5.2,6.9l0.1,0c0.7,0.2,1.4,0.2,2.2,0.2c0.8,0,1.5-0.1,2.2-0.3
	l0.1,0c3.2-0.9,5.2-3.6,5.2-6.9C68.3,103.7,67.7,98.9,67.7,98.9 M56.9,102.4c0.2,0,0.3,0,0.3,0.3c0,0.2,0.2,0.2,0.2,0.4
	s-0.3,0.4-0.3,0.4c0,0-0.1,0.1-0.2,0.1c-0.1,0,0-0.1,0.1-0.1c0,0,0.1-0.1,0.1-0.2c0-0.1-0.1-0.1-0.2-0.1c-0.1,0-0.1,0-0.1,0.1
	c0,0.1-0.2,0.1-0.2,0.2c-0.1,0-0.2,0.1-0.2,0.1l-0.1-0.1c0,0,0.2-0.1,0.2-0.2s-0.3-0.1-0.3-0.1c-0.1,0-0.1,0.1-0.2,0.1
	c-0.1,0-0.1,0-0.2,0c-0.1,0-0.3,0.3-0.4,0.3c0,0.1-0.1,0.1-0.1,0.1h-0.2c-0.1,0,0-0.1,0.1-0.1c0.1,0,0.2-0.3,0.3-0.4
	c0.1-0.1,0.2-0.1,0.3-0.1c0.1,0,0.2-0.1,0.3-0.3c0.1-0.1,0.7,0.1,0.7-0.1c0-0.1-0.1,0-0.2-0.1c-0.1,0-0.3,0-0.3-0.2
	c0-0.2,0.3-0.2,0.3-0.2c0.1,0,0.2,0,0.2,0c0.2-0.1,0.2,0.1,0.2,0.1c-0.1,0.1-0.2,0-0.2,0l-0.2,0c-0.1,0-0.1,0-0.1,0.1
	C56.5,102.4,56.7,102.4,56.9,102.4 M55.6,105.7l0.2-0.2v-0.2H56l0.2-0.2l0.2,0.2h0.2v0.2l0.2,0.2l-0.2,0.2v0.2h-0.2l-0.2,0.2
	l-0.2-0.2h-0.2v-0.2L55.6,105.7z M55.8,99.7v-0.2H56l0.2-0.2l0.2,0.2h0.2v0.2l0.2,0.2l-0.2,0.2v0.2h-0.2l-0.2,0.2l-0.2-0.2h-0.2V100
	l-0.2-0.2L55.8,99.7z M55.5,102.6c0,0-0.1-0.2-0.1-0.3c0,0,0.2-0.1,0.3-0.1c0.2,0,0.3,0.1,0.3,0.1s0,0.6-0.3,0.6
	c-0.2,0-0.3-0.1-0.3-0.1s-0.7-0.3-0.5-0.5C55.2,102.1,55.3,102.5,55.5,102.6 M54.1,99.1h1.3v2.8h-1.5
	C53.9,100.3,54.1,99.1,54.1,99.1 M53.8,102.8l0.2-0.2v-0.2h0.2l0.2-0.2l0.2,0.2h0.2v0.2l0.2,0.2l-0.2,0.2v0.2h-0.2l-0.2,0.2
	l-0.2-0.2H54V103L53.8,102.8z M53.6,103.7h1.7v2.7h-1.8C53.5,105.5,53.6,104.6,53.6,103.7 M58.5,113.6c-3.1-0.9-5-3.5-5-6.7l0-0.3h5
	V113.6z M58.5,106.4H57v-2.7h1.5V106.4z M58.4,102.9v0.2h-0.2l-0.2,0.2l-0.2-0.2h-0.2v-0.2l-0.2-0.2l0.2-0.2v-0.2h0.2l0.2-0.2
	l0.2,0.2h0.2v0.2l0.1,0.2L58.4,102.9z M58.5,101.9H57v-2.8h1.5V101.9z M62.9,113.7c-0.7,0.2-1.4,0.3-2.1,0.3c-0.7,0-1.4-0.1-2.1-0.3
	v-7h4.2V113.7z M62.9,106.4h-4.2v-7.4h2.1h2.1V106.4z M63.1,99.1h4.4c0,0,0.5,4.2,0.6,7.4h-5V99.1z M63.1,113.6v-7h5l0,0.3
	C68.1,110.1,66.2,112.8,63.1,113.6"/>
<path class="st7" d="M66,102.1c-0.1,0-0.4,0.1-0.4,0.1v0.6h0.2c0.1-0.2,0.3-0.2,0.3-0.2c0,0.1,0,0.2,0,0.2h0.1c0,0,0.1-0.1,0.1-0.3
	C66.4,102.3,66.2,102.2,66,102.1"/>
<path class="st7" d="M64.8,102.5c0,0.2,0.1,0.3,0.1,0.3h0.1c0,0,0-0.1,0-0.2c0,0,0.2,0,0.3,0.2h0.2v-0.6c0,0-0.2-0.1-0.4-0.1
	C65,102.2,64.8,102.3,64.8,102.5"/>
<path class="st7" d="M55.6,110.2c0-0.7,0.2-0.9,0.2-0.9s0,0.4,0,0.5c0,0.2,0.1,0.3,0.1,0.5c0,0.2-0.4,0-0.4,0.3
	c0,0.4,0.5-0.2,0.6-0.2c0.1,0,0.1,0,0.1,0.1c0,0.3-0.1,0-0.3,0.5c-0.1,0.3-0.4,0.5-0.3,0.6c0.1,0.1,0.2-0.1,0.2,0
	c0.1,0.1-0.1,0.2,0,0.3c0.1,0.1,0.2-0.2,0.3-0.1c0.1,0,0,0.3,0.2,0.3c0.2,0,0.1-0.3,0.2-0.3c0.1,0,0.2,0.4,0.3,0.3
	c0.1,0,0-0.2,0.1-0.3c0.1-0.1,0.2,0.3,0.4,0.2c0.2-0.1-0.5-0.8-0.5-1c-0.2-0.5-0.3-0.3-0.3-0.5c0-0.1,0-0.1,0.1-0.2
	c0.1,0,0.6,0.7,0.6,0.2c0-0.2-0.4-0.1-0.4-0.3c0-0.1,0.1-0.3,0.1-0.5c0-0.2-0.1-0.6-0.1-0.6c0.2,0.1,0.2,0.9,0.2,0.9
	c1.1,0,1.3-1.1,1.3-1.3c0-0.2-0.1-0.4-0.1-0.4s-0.2,0.4-0.4,0.2c-0.2-0.2,0.4-0.4,0.3-0.5c-0.1-0.2-0.3,0.3-0.5,0.1
	c-0.2-0.2,0.6-0.4,0.5-0.6c-0.2-0.2-0.4,0.3-0.5,0.2s0.7-0.7,0.5-0.8c-0.1-0.1-0.4,0.3-0.6,0.4c-0.2,0.1-0.5,0.1-0.5,0.7
	c0,0.6-0.1,0.8-0.2,0.8c-0.1,0-0.3-0.1-0.3-0.4c0-0.3-0.2-0.4-0.3-0.4c-0.1,0-0.2,0-0.2,0.1c-0.1,0-0.3,0.1-0.3,0.1
	c0.3,0.1,0.4,0.3,0.4,0.4c0,0.1,0,0.2-0.2,0.2c-0.2,0-0.3-0.4-0.3-0.4l-0.3-0.2c0,0,0.2,0,0.2-0.3c0-0.3-0.3-0.4-0.5-0.6
	c-0.2-0.1-0.5-0.5-0.6-0.4c-0.2,0.2,0.7,0.7,0.5,0.8c-0.2,0.2-0.4-0.4-0.5-0.2c-0.2,0.2,0.6,0.5,0.4,0.7c-0.2,0.2-0.3-0.4-0.5-0.2
	c-0.1,0.2,0.5,0.5,0.4,0.6c-0.1,0.1-0.4-0.1-0.4-0.1s0,0.1,0,0.4C54.3,110.3,55.6,110.2,55.6,110.2"/>
<polygon class="st7" points="61.1,104.7 60.8,104.7 60.5,104.5 60.3,104.7 60,104.7 60,105 59.8,105.3 60,105.5 60,105.8 
	60.3,105.8 60.5,106.1 60.8,105.8 61.1,105.8 61.1,105.5 61.3,105.3 61.1,105 "/>
<polygon class="st7" points="59.8,103.9 60,104.1 60.1,103.9 60.4,103.9 60.4,103.7 60.5,103.5 60.4,103.4 60.4,103.1 60.1,103.1 
	60,103 59.8,103.1 59.6,103.1 59.6,103.4 59.4,103.5 59.6,103.7 59.6,103.9 "/>
<polygon class="st7" points="61.4,102 61.4,101.9 61.2,101.9 61.1,101.7 60.9,101.9 60.7,101.9 60.7,102 60.6,102.2 60.7,102.3 
	60.7,102.5 60.9,102.5 61.1,102.7 61.2,102.5 61.4,102.5 61.4,102.3 61.5,102.2 "/>
<polygon class="st7" points="61.6,103.2 61.5,103.4 61.6,103.5 61.6,103.6 61.8,103.6 61.9,103.8 62,103.6 62.2,103.6 62.2,103.5 
	62.3,103.4 62.2,103.2 62.2,103.1 62,103.1 61.9,103 61.8,103.1 61.6,103.1 "/>
<polygon class="st7" points="61.9,104.4 61.8,104.4 61.8,104.5 61.8,104.7 61.8,104.8 61.9,104.8 62.1,104.8 62.2,104.8 62.2,104.7 
	62.2,104.5 62.2,104.4 62.1,104.4 "/>
<path class="st7" d="M61.3,99.8c0.1,0,0.2,0.1,0.2,0.3c0,0.1-0.1,0.3-0.1,0.4c-0.1,0.1-0.1,0.2-0.1,0.3h-1.2c0-0.1,0-0.2-0.1-0.3
	c-0.1-0.1-0.1-0.2-0.1-0.4c0-0.1,0.1-0.3,0.2-0.3c0.1,0,0.3,0,0.4,0.1c0,0-0.1-0.2-0.4-0.2c-0.3,0-0.4,0.2-0.4,0.4
	c0,0.2,0.3,0.4,0.3,0.7v0.3h1.4l-0.1-0.3c0-0.2,0.3-0.5,0.3-0.7c0-0.2-0.1-0.4-0.4-0.4c-0.3,0-0.4,0.2-0.4,0.2
	C61.1,99.8,61.2,99.8,61.3,99.8"/>
<path class="st7" d="M60.6,99.5c0,0.2,0.2,0.1,0.2,0.2c0-0.1,0.2,0,0.2-0.2c0-0.2-0.2-0.4-0.2-0.4S60.6,99.4,60.6,99.5"/>
<path class="st7" d="M60.3,100.7c0-0.1,0.1,0,0.1-0.1c0-0.1-0.1-0.2-0.1-0.2s-0.1,0.1-0.1,0.2C60.2,100.7,60.3,100.6,60.3,100.7"/>
<path class="st7" d="M61.2,100.7c0-0.1,0.1,0,0.1-0.1c0-0.1-0.1-0.2-0.1-0.2s-0.1,0.1-0.1,0.2C61.1,100.7,61.2,100.6,61.2,100.7"/>
<path class="st7" d="M60.7,100.7c0-0.1,0.1,0,0.1-0.1c0-0.1-0.1-0.2-0.1-0.2s-0.1,0.1-0.1,0.2C60.6,100.7,60.7,100.6,60.7,100.7"/>
<path class="st7" d="M67.2,102.5l0.4-1.2l-1.2,0.3l0.7-2.1l-1.5,0.6L64,99.5l0.7,2.1l-1.2-0.3l0.4,1.2l-0.4,1.3l1.2-0.4l-0.7,2.3
	l1.5-0.5l1.5,0.5l-0.7-2.3l1.2,0.4L67.2,102.5z M66.3,102.9v0.4h-0.7h-0.7v-0.4c0,0-0.3-0.1-0.3-0.5c0-0.3,0.3-0.4,0.5-0.4
	c0.2,0,0.4,0.1,0.4,0.1s-0.1-0.1-0.1-0.2c0-0.1,0.2-0.2,0.2-0.2s0.2,0.1,0.2,0.2c0,0.1-0.1,0.2-0.1,0.2s0.2-0.1,0.4-0.1
	c0.2,0,0.5,0.1,0.5,0.4C66.6,102.8,66.3,102.9,66.3,102.9"/>
<path class="st7" d="M67.6,106.9c0,0-0.1,0-0.4,0s-0.6,0.3-0.6,0.7c0,0.3,0.3,0.9,0.3,1.1c0,0.2-0.2,0.7-0.6,0.6
	c-0.4-0.1-0.1-0.6-0.1-1c0-0.3-0.4-0.8-0.9-0.8c-0.5,0-0.8,0.4-0.8,0.5c0,0.1,0.5-0.2,0.5,0.1c0,0.1-0.1,0.1-0.3,0.1
	s-0.2,0.1-0.2,0.1c0.1,0.1,0.3,0.2,0.3,0.2c-0.3,0.3-0.5,0.4-0.5,0.4c-0.4-0.1-0.2-1.1-0.2-1.2s0.1-0.2,0.1-0.2
	c0-0.4-0.7-0.5-0.7-0.4c0,0.1,0.1,0.1,0.1,0.1c0,0.1-0.1,0-0.1,0.1c0,0.1,0.1,0.1,0.1,0.2c0,0.1-0.2,0.2,0,0.2c0.3,0,0,1.3-0.1,1.5
	c-0.1,0.2,0.1,0.2,0.3,0.2c0.1,0.1,0,0.5,0,0.6c0,0.2,0.4,0.6,0.4,0.6c0.1,0.1-0.1,1-0.3,1.3s-0.4,0.2-0.6,0.4c-0.2,0.1,0,0.4,0,0.3
	c0-0.2,0.2-0.1,0.2-0.1s0.1,0.1,0.4,0c0.3-0.1,0.4-0.6,0.6-0.8c0.1-0.2,0.1-0.1,0.3-0.3c0.2-0.2-0.1-0.1,0.2-0.6
	c0.3-0.5,0.8-0.6,1-0.5c0.2,0.1-0.5,0.6-0.5,0.6l0.2,0c0,0,0.2-0.2,0.3-0.3c0.1-0.1,0.2,0,0.3-0.1c0.1-0.1,0.1-0.2,0.1-0.2
	c0.1,0,0.4,0,0.4,0c0,0.1,0,0.3-0.2,0.4c-0.2,0.1-0.1,0.3-0.1,0.3c0.2-0.1,0.5-0.4,0.5-0.6s0.1-0.4,0.1-0.4s-0.2,0.1-0.4-0.1
	c-0.1-0.2,0.3-0.6,0.3-0.9c0-0.3-0.4-0.6-0.4-1.1c0-0.5,0.3-0.6,0.4-0.6s0.2,0.1,0.3,0.2c0.1,0.1,0.3,0.3,0.3,0.3
	c0-0.1,0.1-0.2,0.1-0.2l0-0.2C67.8,106.8,67.6,106.9,67.6,106.9 M65.3,107.6c-0.1,0-0.1,0-0.1-0.1c0,0,0.1-0.1,0.1-0.1
	c0.1,0,0.1,0,0.1,0.1C65.5,107.6,65.4,107.6,65.3,107.6"/>
<path class="st7" d="M60.4,108.8c0.4,0.3,0.2,0.5-0.1,0.8c-0.3,0.3,0,0.4-0.2,0.7c-0.3,0.3,0,0.4-0.2,0.7c-0.3,0.4,0,0.4-0.1,0.5
	c-0.1,0.1-0.7-0.3-0.7-0.3l0.7,1h2.5c0.5,0,0.1-1.3-0.1-1.7c-0.2-0.4-0.4-1.1-0.3-1.2c0.1-0.2,0.5,0.2,0.5,0.2
	c0.1-0.6-0.2-1.1-0.5-1.1c-0.3,0-0.6,0.6-0.1,1.7c0.5,1,0.4,1.5,0.2,1.5c-0.2,0-0.3-0.4-0.4-0.8c-0.1-0.4-0.2-1.4-0.5-1.8
	c-0.3-0.4-1.1-0.7-1.4-0.9c-0.3-0.2-0.4-0.6-0.4-0.6C58.9,107.9,60,108.6,60.4,108.8"/>
<path class="st7" d="M60.3,109.4c0.2-0.2-0.1-0.4-0.5-0.6c-0.4-0.3-0.7-0.7-0.7-0.7c0,0.3,0.3,0.7,0.4,0.9
	C59.7,109.1,60.1,109.6,60.3,109.4"/>
<path class="st7" d="M60,110.1c0.2-0.2-0.2-0.4-0.4-0.6l-0.5-0.5c0,0.3,0.2,0.7,0.3,0.8C59.6,109.8,59.9,110.3,60,110.1"/>
<path class="st7" d="M59.3,110c0,0.2,0.1,0.5,0.2,0.6c0.1,0.1,0.2,0.4,0.3,0.2c0.1-0.2-0.1-0.4-0.2-0.4
	C59.5,110.3,59.3,110,59.3,110"/>
<polygon class="st7" points="60.1,112.7 62.1,112.7 62.2,112.5 60,112.5 "/>
<polygon class="st7" points="60.4,113.1 61.9,113.1 61.9,113 60.3,113 "/>
<polygon class="st7" points="58.1,98.6 58.2,98.6 58.2,98.5 58.5,98.5 58.2,97.8 57.8,98.5 58.1,98.5 "/>
<polygon class="st7" points="63.4,98.6 63.5,98.6 63.5,98.5 63.8,98.5 63.5,97.8 63.1,98.5 63.4,98.5 "/>
<polygon class="st7" points="68.1,98.6 68.2,98.6 68.2,98.5 68.4,98.5 68.1,97.8 67.8,98.5 68.1,98.5 "/>
<polygon class="st7" points="68.8,103.5 69,103.5 69,103.4 69.2,103.3 68.8,102.6 68.6,103.4 68.8,103.4 "/>
<polygon class="st7" points="68.8,108.7 68.9,108.7 68.9,108.6 69.2,108.6 68.9,107.9 68.6,108.6 68.8,108.6 "/>
<polygon class="st7" points="67.2,112.2 66.4,112.5 66.6,112.7 66.5,112.8 66.6,112.9 66.7,112.8 66.9,113 "/>
<polygon class="st7" points="62.4,114.7 62.3,114.8 62.4,114.9 62.5,114.9 62.6,115.1 63.2,114.6 62.4,114.5 "/>
<polygon class="st7" points="59.4,114.5 58.6,114.6 59.2,115.1 59.3,114.8 59.4,114.9 59.4,114.7 59.3,114.7 "/>
<polygon class="st7" points="54.4,112 54.7,112.8 54.9,112.6 54.9,112.7 55.1,112.6 55,112.5 55.1,112.3 "/>
<polygon class="st7" points="52.8,107.6 52.6,108.4 52.8,108.3 52.8,108.5 53,108.5 53,108.3 53.2,108.3 "/>
<polygon class="st7" points="52.6,103 52.9,103.1 52.9,103.2 53,103.2 53,103.1 53.3,103.1 53,102.3 "/>
<polygon class="st7" points="53.4,98.6 53.4,98.5 53.7,98.5 53.4,97.8 53,98.5 53.3,98.5 53.3,98.6 "/>
<path class="st7" d="M60.7,94.3l-3.1,0c-0.3,0-0.5,0.2-0.5,0.5c0,0.3,0.2,0.5,0.5,0.5h3.2h3.1c0.3,0,0.5-0.2,0.5-0.5
	c0-0.3-0.2-0.5-0.5-0.5L60.7,94.3z M58.9,95.3l-0.6-0.8h1.1l0.6,0.8H58.9z M61.3,95.3l-0.6-0.8h1.1l0.6,0.8L61.3,95.3z M64.2,94.8
	c0.1,0.4-0.4,0.4-0.4,0.4l-0.6-0.7h0.8C63.9,94.5,64.1,94.5,64.2,94.8"/>
<path class="st7" d="M58.9,91.9l0,2.2l1.9-1.3l1.8,1.4v-2.2l2.1-0.3L63.1,90l1.1-1.9l-2.3,0.4l-1.1-2.2l-1.1,2.2l-2.2-0.3l1,1.9
	l-1.6,1.6L58.9,91.9z M62.4,93.5l-1.5-2.9l1.5,1V93.5z M64.1,91.4l-3.2-0.9l1.8-0.4L64.1,91.4z M63.6,88.5l-2.7,1.9l0.9-1.6
	L63.6,88.5z M61.7,88.6l-0.9,1.7l0-3.4L61.7,88.6z M59.2,93.5l0-1.9l1.5-1L59.2,93.5z M57.9,88.5l1.9,0.3l0.8,1.6L57.9,88.5z
	 M58.9,90l1.8,0.4l-3,0.9L58.9,90z"/>
<path class="st7" d="M47.1,120.6l-1.2-2.8h-0.3l-1.1,2.6c-0.2,0.4-0.4,0.6-0.6,0.6v0.3h1.3v-0.3c-0.3,0-0.5-0.1-0.5-0.3
	c0-0.1,0-0.2,0.1-0.5h1.2l0.2,0.5c0,0.1,0,0.1,0,0.2c0,0.1-0.1,0.1-0.2,0.1H46v0.3h1.6v-0.3C47.3,120.9,47.2,120.9,47.1,120.6
	 M45,119.9l0.5-1.2l0.5,1.2H45z"/>
<path class="st7" d="M49.6,118.1h0.2v-0.3H48v0.3h0.2c0.2,0,0.3,0.1,0.3,0.2v1.8c0,0.7,0.5,1.1,1.4,1.1c0.7,0,1.3-0.3,1.3-1.2v-1.3
	c0-0.4,0.1-0.6,0.5-0.6v-0.3h-1.3v0.3c0.4,0,0.5,0.1,0.5,0.6v1.3c0,0.6-0.4,0.9-0.8,0.9c-0.6,0-0.8-0.3-0.8-0.7v-1.8
	C49.3,118.2,49.3,118.1,49.6,118.1"/>
<path class="st7" d="M53.9,121c-0.6,0-1.1-0.6-1.2-1.1h-0.2l0,1.3h0.2L53,121c0.3,0.2,0.6,0.3,1,0.3c0.8,0,1.2-0.5,1.2-1.1
	c0-0.6-0.3-0.9-1.1-1.1l-0.6-0.1c-0.4-0.1-0.5-0.3-0.5-0.5c0-0.3,0.3-0.5,0.6-0.5c0.6,0,1,0.5,1.1,1H55l-0.1-1.2h-0.2l-0.3,0.2
	c-0.2-0.2-0.5-0.3-0.8-0.3c-0.7,0-1.2,0.3-1.2,1.1c0,0.5,0.3,0.9,1.2,1.1l0.5,0.1c0.3,0.1,0.5,0.2,0.5,0.5
	C54.6,120.9,54.3,121,53.9,121"/>
<path class="st7" d="M58,118.1c0.5,0,0.7,0.6,0.8,1H59l-0.1-1.3h-3l-0.1,1.3h0.2c0.1-0.4,0.3-1,0.8-1c0.1,0,0.2,0,0.2,0.2v2.5
	c0,0.2,0,0.2-0.3,0.2h-0.3v0.3h1.9v-0.3h-0.3c-0.2,0-0.3-0.1-0.3-0.2v-2.5C57.8,118.1,57.9,118.1,58,118.1"/>
<path class="st7" d="M59.8,120.9h-0.2v0.3h1.8v-0.3h-0.2c-0.2,0-0.3-0.1-0.3-0.2v-1.1h0.2c0.5,0,0.6,0.2,0.6,0.9
	c0,0.6,0.3,0.8,0.7,0.8c0.4,0,0.8-0.2,0.8-0.8h-0.2c0,0.3-0.1,0.4-0.2,0.4c-0.1,0-0.1-0.1-0.2-0.4c-0.1-0.6-0.3-0.8-0.8-0.9
	c0.6,0,1-0.3,1-0.8c0-0.5-0.3-0.9-1.2-0.9h-2.1v0.3h0.2c0.3,0,0.3,0.1,0.3,0.2v2.4C60.1,120.9,60.1,120.9,59.8,120.9 M60.9,118.4
	c0-0.3,0-0.3,0.4-0.3c0.4,0,0.7,0.1,0.7,0.6c0,0.5-0.4,0.7-0.9,0.7h-0.2V118.4z"/>
<path class="st7" d="M66.9,120.6l-1.2-2.8h-0.4l-1.1,2.6c-0.2,0.4-0.4,0.6-0.6,0.6v0.3H65v-0.3c-0.3,0-0.5-0.1-0.5-0.3
	c0-0.1,0-0.2,0.1-0.5h1.2l0.2,0.5c0,0.1,0,0.1,0,0.2c0,0.1-0.1,0.1-0.2,0.1h-0.1v0.3h1.6v-0.3C67.1,120.9,67,120.9,66.9,120.6
	 M64.8,119.9l0.5-1.2l0.5,1.2H64.8z"/>
<path class="st7" d="M68,120.9h-0.2v0.3h3.1l0.1-1.3h-0.2c-0.1,0.6-0.4,1-1.1,1c-0.5,0-0.5,0-0.5-0.3v-2.3c0-0.2,0-0.2,0.3-0.2h0.2
	v-0.3h-1.8v0.3H68c0.2,0,0.3,0.1,0.3,0.2v2.4C68.3,120.9,68.2,120.9,68,120.9"/>
<path class="st7" d="M71.8,120.9h-0.2v0.3h1.8v-0.3h-0.2c-0.2,0-0.3-0.1-0.3-0.2v-2.4c0-0.2,0-0.2,0.3-0.2h0.2v-0.3h-1.8v0.3h0.2
	c0.2,0,0.3,0.1,0.3,0.2v2.4C72.1,120.9,72.1,120.9,71.8,120.9"/>
<path class="st7" d="M77.6,120.9c-0.3,0-0.3-0.1-0.5-0.3l-1.2-2.8h-0.3l-1.1,2.6c-0.2,0.4-0.4,0.6-0.6,0.6v0.3h1.3v-0.3
	c-0.3,0-0.5-0.1-0.5-0.3c0-0.1,0-0.2,0.1-0.5h1.2l0.2,0.5c0,0.1,0,0.1,0,0.2c0,0.1-0.1,0.1-0.2,0.1H76v0.3h1.6V120.9z M75,119.9
	l0.5-1.2l0.5,1.2H75z"/>
<path class="st7" d="M75.6,124.6c2.7-0.3,6.8-1.9,9.2-4.8c0,0-3.8,4-9.2,4.6c0,0-3.8,0.4-14.2,0.3c0,0-0.3,0-0.8,0
	c-0.5,0-0.8,0-0.8,0c-10.3,0.1-14.2-0.3-14.2-0.3c-5.4-0.6-9.2-4.6-9.2-4.6c2.4,2.9,6.5,4.5,9.2,4.8c2.3,0.3,10.3,0.2,13.5,0.3
	c-1.1,0.2-2.5,0.7-3.7,1.6h0.9c0,0,1.3-1.2,4.3-1.5c3,0.3,4.3,1.5,4.3,1.5h0.8c-1.2-0.9-2.6-1.4-3.7-1.6
	C65.3,124.8,73.3,124.9,75.6,124.6"/>
<path class="st7" d="M57.5,124.3c-0.7-1.5-2.3-2.2-2.3-2.2C56,123.9,57.5,124.3,57.5,124.3"/>
<path class="st7" d="M52.7,122.2c0.9,1.8,2.3,2.2,2.3,2.2C54.3,122.8,52.7,122.2,52.7,122.2"/>
<path class="st7" d="M46,122.3c0.8,1.6,2.2,2,2.2,2C47.4,122.9,46,122.3,46,122.3"/>
<path class="st7" d="M48,122.1c0.9,1.8,2.3,2.2,2.3,2.2C49.6,122.7,48,122.1,48,122.1"/>
<path class="st7" d="M50.3,122c0.9,1.8,2.3,2.2,2.3,2.2C51.9,122.7,50.3,122,50.3,122"/>
<path class="st7" d="M46,124c-0.7-1.4-2.2-2-2.2-2C44.7,123.6,46,124,46,124"/>
<path class="st7" d="M41.9,121.2c0.5,1.8,1.7,2.4,1.7,2.4C43.3,122.1,41.9,121.2,41.9,121.2"/>
<path class="st7" d="M41.1,122.7c0-1.6-1-2.8-1-2.8C40.1,121.8,41.1,122.7,41.1,122.7"/>
<path class="st7" d="M38.2,119.1c0,1.8,1.1,2.7,1.1,2.7C39.3,120.2,38.2,119.1,38.2,119.1"/>
<path class="st7" d="M36.6,117.5c-0.1,1.8,0.8,2.8,0.8,2.8C37.5,118.8,36.6,117.5,36.6,117.5"/>
<path class="st7" d="M37.2,120.8c-1.3-0.9-2.8-0.8-2.8-0.8C35.8,121.1,37.2,120.8,37.2,120.8"/>
<path class="st7" d="M36.2,122.3c1.7,0.7,2.9,0.1,2.9,0.1C37.7,121.8,36.2,122.3,36.2,122.3"/>
<path class="st7" d="M38.1,124c1.8,0.3,2.9-0.5,2.9-0.5C39.5,123.2,38.1,124,38.1,124"/>
<path class="st7" d="M40.5,125.2c1.8,0.1,2.8-0.9,2.8-0.9C41.8,124.2,40.5,125.2,40.5,125.2"/>
<path class="st7" d="M43,126.1c1.8-0.2,2.6-1.3,2.6-1.3C44,125,43,126.1,43,126.1"/>
<path class="st7" d="M45.5,126.7c1.8-0.5,2.4-1.7,2.4-1.7C46.4,125.4,45.5,126.7,45.5,126.7"/>
<path class="st7" d="M47.7,127c1.9-0.5,2.5-1.9,2.5-1.9C48.6,125.5,47.7,127,47.7,127"/>
<path class="st7" d="M50.1,127c1.9-0.6,2.6-1.9,2.6-1.9C51,125.5,50.1,127,50.1,127"/>
<path class="st7" d="M52.8,127.1c1.7-0.7,2.1-2,2.1-2C53.4,125.6,52.8,127.1,52.8,127.1"/>
<path class="st7" d="M63.8,124.3c0,0,1.4-0.4,2.3-2.2C66.2,122.1,64.6,122.7,63.8,124.3"/>
<path class="st7" d="M66.2,124.3c0,0,1.4-0.4,2.3-2.2C68.6,122.2,67,122.8,66.2,124.3"/>
<path class="st7" d="M75.3,122.3c0,0-1.5,0.6-2.2,2C73.2,124.3,74.5,123.9,75.3,122.3"/>
<path class="st7" d="M73.3,122.1c0,0-1.6,0.6-2.3,2.2C71,124.3,72.4,123.9,73.3,122.1"/>
<path class="st7" d="M68.7,124.2c0,0,1.4-0.4,2.3-2.2C71,122.1,69.4,122.7,68.7,124.2"/>
<path class="st7" d="M77.5,122c0,0-1.5,0.6-2.2,2C75.3,124,76.6,123.6,77.5,122"/>
<path class="st7" d="M77.7,123.6c0,0,1.2-0.6,1.7-2.4C79.4,121.2,78,122.1,77.7,123.6"/>
<path class="st7" d="M81.2,120c0,0-1,1.2-1,2.8C80.2,122.7,81.2,121.8,81.2,120"/>
<path class="st7" d="M82,121.8c0,0,1-0.9,1.1-2.7C83.1,119.1,82,120.2,82,121.8"/>
<path class="st7" d="M84.7,117.5c0,0-0.9,1.3-0.8,2.8C84,120.4,84.9,119.3,84.7,117.5"/>
<path class="st7" d="M84.1,120.8c0,0,1.4,0.3,2.8-0.8C87,120.1,85.4,119.9,84.1,120.8"/>
<path class="st7" d="M82.2,122.4c0,0,1.3,0.6,2.9-0.1C85.2,122.3,83.7,121.8,82.2,122.4"/>
<path class="st7" d="M80.3,123.5c0,0,1.1,0.8,2.9,0.5C83.2,124,81.8,123.2,80.3,123.5"/>
<path class="st7" d="M78,124.4c0,0,1,0.9,2.8,0.9C80.8,125.2,79.6,124.2,78,124.4"/>
<path class="st7" d="M75.7,124.8c0,0,0.8,1.1,2.6,1.3C78.4,126.1,77.3,125,75.7,124.8"/>
<path class="st7" d="M73.4,125c0,0,0.7,1.2,2.4,1.7C75.8,126.7,75,125.4,73.4,125"/>
<path class="st7" d="M71.1,125.1c0,0,0.7,1.4,2.5,1.9C73.6,127,72.7,125.5,71.1,125.1"/>
<path class="st7" d="M68.6,125.1c0,0,0.7,1.4,2.6,1.9C71.2,127,70.3,125.5,68.6,125.1"/>
<path class="st7" d="M66.4,125.1c0,0,0.5,1.3,2.1,2C68.6,127.1,67.9,125.6,66.4,125.1"/>
<path class="st7" d="M63,122.7c0-0.3-0.2-0.5-0.5-0.5s-0.5,0.2-0.5,0.5c0,0.3,0.2,0.5,0.5,0.5S63,123,63,122.7"/>
<path class="st7" d="M61.3,126.2c0-0.3-0.3-0.6-0.6-0.6c-0.3,0-0.6,0.3-0.6,0.6c0,0.3,0.3,0.6,0.6,0.6
	C61,126.8,61.3,126.6,61.3,126.2"/>
<path class="st7" d="M60.6,125.4c0-0.1,0-0.1-0.1-0.1c-0.1,0-0.1,0-0.1,0.1c0,0.1,0,0.1,0.1,0.1C60.5,125.5,60.6,125.5,60.6,125.4"
	/>
<path class="st7" d="M59.7,126.1c0,0.1,0,0.1,0.1,0.1s0.1,0,0.1-0.1c0-0.1,0-0.1-0.1-0.1S59.7,126,59.7,126.1"/>
<path class="st7" d="M59.9,125.7c-0.1,0-0.1,0.1-0.1,0.1c0,0.1,0,0.1,0.1,0.1c0.1,0,0.1,0,0.1-0.1C60,125.7,60,125.7,59.9,125.7"/>
<path class="st7" d="M60.2,125.6c0.1,0,0.1,0,0.1-0.1c0-0.1,0-0.1-0.1-0.1c-0.1,0-0.1,0.1-0.1,0.1C60,125.6,60.1,125.6,60.2,125.6"
	/>
<path class="st7" d="M60.9,125.4c0-0.1,0-0.1-0.1-0.1s-0.1,0-0.1,0.1c0,0.1,0,0.1,0.1,0.1S60.9,125.5,60.9,125.4"/>
<path class="st7" d="M61.2,125.4c-0.1,0-0.1,0.1-0.1,0.1c0,0.1,0,0.1,0.1,0.1c0.1,0,0.1,0,0.1-0.1C61.3,125.5,61.2,125.4,61.2,125.4
	"/>
<path class="st7" d="M60.5,127c-0.1,0-0.1,0-0.1,0.1c0,0.1,0,0.1,0.1,0.1c0.1,0,0.1,0,0.1-0.1C60.6,127,60.5,127,60.5,127"/>
<path class="st7" d="M59.8,126.5c0.1,0,0.1,0,0.1-0.1c0-0.1-0.1-0.1-0.1-0.1c-0.1,0-0.1,0-0.1,0.1C59.7,126.4,59.7,126.5,59.8,126.5
	"/>
<path class="st7" d="M59.9,126.6c-0.1,0-0.1,0-0.1,0.1c0,0.1,0,0.1,0.1,0.1c0.1,0,0.1,0,0.1-0.1C60,126.6,60,126.6,59.9,126.6"/>
<path class="st7" d="M60.2,126.8c-0.1,0-0.1,0-0.1,0.1c0,0.1,0,0.1,0.1,0.1c0.1,0,0.1,0,0.1-0.1C60.3,126.9,60.2,126.8,60.2,126.8"
	/>
<path class="st7" d="M60.8,127c-0.1,0-0.1,0-0.1,0.1c0,0.1,0,0.1,0.1,0.1c0.1,0,0.1,0,0.1-0.1C60.9,127,60.9,127,60.8,127"/>
<path class="st7" d="M61.2,126.8c-0.1,0-0.1,0-0.1,0.1c0,0.1,0,0.1,0.1,0.1c0.1,0,0.1,0,0.1-0.1C61.3,126.9,61.2,126.8,61.2,126.8"
	/>
<path class="st7" d="M59.2,125.9C59.2,125.9,59.2,125.9,59.2,125.9c-0.1-0.1-0.2-0.1-0.2,0C59,126,59,126,59.2,125.9
	C59.2,126,59.2,126,59.2,125.9"/>
<path class="st7" d="M58.5,126.7C58.5,126.7,58.6,126.6,58.5,126.7c0.1-0.2,0.1-0.2,0-0.2C58.4,126.5,58.4,126.5,58.5,126.7
	C58.4,126.6,58.4,126.7,58.5,126.7"/>
<path class="st7" d="M58.6,126.2C58.5,126.2,58.5,126.2,58.6,126.2c-0.1,0.2-0.1,0.2,0,0.2C58.6,126.4,58.7,126.4,58.6,126.2
	C58.7,126.2,58.6,126.2,58.6,126.2"/>
<path class="st7" d="M58.8,126.2C58.9,126.2,58.9,126.1,58.8,126.2c0.1-0.2,0.1-0.2,0-0.2C58.8,126,58.7,126,58.8,126.2
	C58.7,126.1,58.8,126.2,58.8,126.2"/>
<path class="st7" d="M59.5,125.9C59.5,125.9,59.5,125.9,59.5,125.9c-0.1-0.1-0.2-0.1-0.2,0C59.4,126,59.4,126,59.5,125.9
	C59.5,126,59.5,126,59.5,125.9"/>
<path class="st7" d="M59.1,127.4c-0.1,0-0.1,0-0.1,0.1c0,0,0,0.1,0.1,0.1c0.1,0,0.1,0,0.1-0.1C59.2,127.5,59.2,127.4,59.1,127.4"/>
<path class="st7" d="M58.6,126.9c0-0.1,0-0.1-0.1-0.1c-0.1,0-0.1,0-0.1,0.1C58.4,126.9,58.4,127,58.6,126.9
	C58.5,127,58.6,126.9,58.6,126.9"/>
<path class="st7" d="M58.6,127.1C58.5,127.1,58.5,127.1,58.6,127.1c-0.1,0.2-0.1,0.2,0,0.2C58.6,127.3,58.7,127.2,58.6,127.1
	C58.7,127.1,58.6,127.1,58.6,127.1"/>
<path class="st7" d="M58.8,127.3C58.8,127.3,58.7,127.3,58.8,127.3c-0.1,0.1-0.1,0.2,0,0.2C58.9,127.5,58.9,127.4,58.8,127.3
	C58.9,127.3,58.9,127.3,58.8,127.3"/>
<path class="st7" d="M59.5,127.4c-0.1,0-0.1,0-0.1,0.1c0,0,0,0.1,0.1,0.1c0.1,0,0.1,0,0.1-0.1C59.5,127.5,59.5,127.4,59.5,127.4"/>
<path class="st7" d="M60,127.1C59.9,127.1,59.9,127.1,60,127.1c-0.1,0.2-0.1,0.2,0,0.2C60,127.3,60.1,127.2,60,127.1
	C60.1,127.1,60,127.1,60,127.1"/>
<path class="st7" d="M59.8,127.3C59.7,127.3,59.7,127.3,59.8,127.3c-0.1,0.1-0.1,0.2,0,0.2C59.8,127.5,59.8,127.4,59.8,127.3
	C59.8,127.3,59.8,127.3,59.8,127.3"/>
<path class="st7" d="M62.4,122C62.4,121.9,62.4,121.9,62.4,122c-0.1-0.1-0.2-0.1-0.2,0C62.2,122,62.3,122.1,62.4,122
	C62.4,122.1,62.4,122,62.4,122"/>
<path class="st7" d="M61.7,122.7C61.8,122.7,61.8,122.7,61.7,122.7c0.1-0.1,0.1-0.2,0-0.2C61.7,122.5,61.6,122.6,61.7,122.7
	C61.6,122.7,61.7,122.7,61.7,122.7"/>
<path class="st7" d="M61.8,122.2C61.8,122.2,61.7,122.3,61.8,122.2c-0.1,0.1-0.1,0.2,0,0.2C61.9,122.4,61.9,122.4,61.8,122.2
	C61.9,122.3,61.9,122.2,61.8,122.2"/>
<path class="st7" d="M62,122.2C62.1,122.2,62.1,122.1,62,122.2c0.1-0.1,0.1-0.2,0-0.2C62,122,61.9,122,62,122.2
	C61.9,122.1,62,122.2,62,122.2"/>
<path class="st7" d="M62.8,122C62.8,121.9,62.7,121.9,62.8,122c-0.1-0.1-0.2-0.1-0.2,0C62.6,122,62.6,122.1,62.8,122
	C62.7,122.1,62.8,122,62.8,122"/>
<path class="st7" d="M63.3,122.5C63.2,122.5,63.2,122.6,63.3,122.5c-0.1,0.1-0.1,0.2,0,0.2C63.3,122.7,63.4,122.7,63.3,122.5
	C63.4,122.6,63.3,122.5,63.3,122.5"/>
<path class="st7" d="M63.2,122.4C63.3,122.4,63.3,122.4,63.2,122.4c0.1-0.1,0.1-0.2,0-0.2C63.2,122.2,63.1,122.3,63.2,122.4
	C63.1,122.4,63.2,122.4,63.2,122.4"/>
<path class="st7" d="M63,122C62.9,122,62.9,122,63,122c-0.1,0.1-0.1,0.2,0,0.2C63,122.2,63.1,122.1,63,122C63.1,122,63,122,63,122"
	/>
<path class="st7" d="M62.2,123.5C62.2,123.6,62.3,123.6,62.2,123.5c0.1,0.1,0.2,0.1,0.2,0C62.4,123.5,62.4,123.4,62.2,123.5
	C62.3,123.4,62.2,123.5,62.2,123.5"/>
<path class="st7" d="M61.7,123C61.8,123,61.8,123,61.7,123c0.1-0.1,0.1-0.2,0-0.2C61.7,122.8,61.6,122.8,61.7,123
	C61.6,123,61.7,123,61.7,123"/>
<path class="st7" d="M61.8,123.3C61.9,123.3,61.9,123.2,61.8,123.3c0.1-0.1,0.1-0.2,0-0.2C61.8,123.1,61.7,123.1,61.8,123.3
	C61.7,123.2,61.8,123.3,61.8,123.3"/>
<path class="st7" d="M62,123.5C62.1,123.5,62.1,123.5,62,123.5c0.1-0.1,0.1-0.2,0-0.2C62,123.3,61.9,123.4,62,123.5
	C61.9,123.5,62,123.5,62,123.5"/>
<path class="st7" d="M62.6,123.5C62.6,123.6,62.6,123.6,62.6,123.5c0.1,0.1,0.2,0.1,0.2,0C62.8,123.5,62.7,123.4,62.6,123.5
	C62.6,123.4,62.6,123.5,62.6,123.5"/>
<path class="st7" d="M63.4,122.9C63.4,122.8,63.3,122.8,63.4,122.9c-0.1-0.1-0.2-0.1-0.2,0C63.2,123,63.2,123,63.4,122.9
	C63.3,123,63.4,123,63.4,122.9"/>
<path class="st7" d="M63.2,123.3C63.3,123.3,63.3,123.2,63.2,123.3c0.1-0.1,0.1-0.2,0-0.2C63.2,123.1,63.1,123.1,63.2,123.3
	C63.1,123.2,63.2,123.3,63.2,123.3"/>
<path class="st7" d="M63,123.5C63,123.5,63.1,123.5,63,123.5c0.1-0.1,0.1-0.2,0-0.2C62.9,123.3,62.9,123.4,63,123.5
	C62.9,123.5,62.9,123.5,63,123.5"/>
<path class="st7" d="M62.2,125.7c-0.3,0-0.5,0.2-0.5,0.5c0,0.3,0.2,0.5,0.5,0.5c0.3,0,0.5-0.2,0.5-0.5
	C62.7,125.9,62.5,125.7,62.2,125.7"/>
<path class="st7" d="M62.1,125.5C62.1,125.4,62.1,125.4,62.1,125.5c-0.1-0.1-0.2,0-0.2,0C62,125.5,62,125.6,62.1,125.5
	C62.1,125.6,62.1,125.5,62.1,125.5"/>
<path class="st7" d="M61.5,126.2C61.5,126.2,61.6,126.1,61.5,126.2c0.1-0.1,0-0.2,0-0.2C61.4,126,61.4,126,61.5,126.2
	C61.4,126.1,61.4,126.2,61.5,126.2"/>
<path class="st7" d="M61.6,125.7C61.5,125.7,61.5,125.8,61.6,125.7c-0.1,0.1-0.1,0.2,0,0.2C61.6,125.9,61.6,125.9,61.6,125.7
	C61.6,125.8,61.6,125.7,61.6,125.7"/>
<path class="st7" d="M61.8,125.7C61.8,125.7,61.9,125.7,61.8,125.7c0.1-0.1,0-0.2,0-0.2C61.7,125.5,61.7,125.6,61.8,125.7
	C61.7,125.7,61.7,125.7,61.8,125.7"/>
<path class="st7" d="M62.5,125.5C62.5,125.4,62.4,125.4,62.5,125.5c-0.1-0.1-0.2,0-0.2,0C62.3,125.5,62.3,125.6,62.5,125.5
	C62.4,125.6,62.5,125.5,62.5,125.5"/>
<path class="st7" d="M62.9,126C62.9,126,62.9,126,62.9,126c-0.1,0.1,0,0.2,0,0.2C63,126.2,63,126.1,62.9,126C63,126,63,126,62.9,126
	"/>
<path class="st7" d="M62.9,125.9C62.9,125.9,62.9,125.9,62.9,125.9c0.1-0.1,0.1-0.2,0-0.2C62.8,125.7,62.8,125.8,62.9,125.9
	C62.8,125.9,62.8,125.9,62.9,125.9"/>
<path class="st7" d="M62.6,125.5C62.6,125.5,62.6,125.6,62.6,125.5c-0.1,0.1-0.1,0.2,0,0.2C62.7,125.7,62.7,125.7,62.6,125.5
	C62.7,125.6,62.7,125.5,62.6,125.5"/>
<path class="st7" d="M62,126.8C62,126.8,62,126.9,62,126.8C62,127,62,127,62,127C62.1,127,62.1,127,62,126.8
	C62.1,126.9,62.1,126.8,62,126.8"/>
<path class="st7" d="M61.6,126.3C61.6,126.3,61.5,126.3,61.6,126.3c-0.1-0.1-0.2-0.1-0.2,0C61.4,126.4,61.4,126.4,61.6,126.3
	C61.5,126.4,61.6,126.4,61.6,126.3"/>
<path class="st7" d="M61.6,126.5C61.5,126.5,61.5,126.6,61.6,126.5c-0.1,0.1-0.1,0.2,0,0.2C61.6,126.7,61.6,126.7,61.6,126.5
	C61.6,126.6,61.6,126.5,61.6,126.5"/>
<path class="st7" d="M61.8,126.7C61.7,126.7,61.7,126.8,61.8,126.7c-0.1,0.1-0.1,0.2,0,0.2C61.8,126.9,61.9,126.9,61.8,126.7
	C61.9,126.8,61.8,126.7,61.8,126.7"/>
<path class="st7" d="M62.4,126.8C62.3,126.8,62.3,126.9,62.4,126.8c-0.1,0.1,0,0.2,0,0.2C62.4,127,62.5,127,62.4,126.8
	C62.5,126.9,62.4,126.8,62.4,126.8"/>
<path class="st7" d="M62.9,126.3C62.9,126.3,62.9,126.3,62.9,126.3c-0.1,0.1,0,0.2,0,0.2C63,126.4,63,126.4,62.9,126.3
	C63,126.3,63,126.3,62.9,126.3"/>
<path class="st7" d="M62.9,126.5C62.8,126.5,62.8,126.6,62.9,126.5c-0.1,0.1,0,0.2,0,0.2C62.9,126.7,62.9,126.7,62.9,126.5
	C62.9,126.6,62.9,126.5,62.9,126.5"/>
<path class="st7" d="M62.6,126.7C62.6,126.7,62.6,126.8,62.6,126.7c-0.1,0.1-0.1,0.2,0,0.2C62.7,126.9,62.7,126.9,62.6,126.7
	C62.7,126.8,62.7,126.7,62.6,126.7"/>
<path class="st7" d="M59.8,126.9c-0.2-0.3-0.2-0.7-0.2-0.7c-0.1-0.1-0.2-0.1-0.3-0.1c-0.3,0-0.5,0.2-0.5,0.5s0.2,0.5,0.5,0.5
	C59.5,127.3,59.7,127.1,59.8,126.9"/>
<path class="st7" d="M59.9,123.6c0-0.2-0.2-0.4-0.4-0.4s-0.4,0.2-0.4,0.4c0,0.2,0.2,0.4,0.4,0.4S59.9,123.8,59.9,123.6"/>
<path class="st7" d="M59.4,123C59.4,123,59.4,122.9,59.4,123c-0.1-0.1-0.1,0-0.1,0C59.3,123,59.3,123.1,59.4,123
	C59.4,123.1,59.4,123,59.4,123"/>
<path class="st7" d="M58.9,123.5C58.9,123.5,59,123.5,58.9,123.5c0.1-0.1,0-0.1,0-0.1C58.8,123.4,58.8,123.4,58.9,123.5
	C58.8,123.5,58.8,123.5,58.9,123.5"/>
<path class="st7" d="M59,123.2C58.9,123.2,58.9,123.2,59,123.2c-0.1,0.1,0,0.1,0,0.1C59,123.3,59,123.3,59,123.2
	C59,123.2,59,123.2,59,123.2"/>
<path class="st7" d="M59.1,123.2C59.2,123.2,59.2,123.1,59.1,123.2c0.1-0.1,0-0.1,0-0.1C59.1,123,59.1,123.1,59.1,123.2
	C59.1,123.1,59.1,123.2,59.1,123.2"/>
<path class="st7" d="M59.7,123C59.7,123,59.6,122.9,59.7,123c-0.1-0.1-0.1,0-0.1,0C59.5,123,59.6,123.1,59.7,123
	C59.6,123.1,59.7,123,59.7,123"/>
<path class="st7" d="M60.1,123.4C60,123.4,60,123.4,60.1,123.4c-0.1,0.1,0,0.1,0,0.1C60.1,123.5,60.1,123.5,60.1,123.4
	C60.1,123.4,60.1,123.4,60.1,123.4"/>
<path class="st7" d="M60,123.3C60,123.3,60.1,123.3,60,123.3c0.1-0.1,0-0.1,0-0.1C60,123.2,59.9,123.2,60,123.3
	C59.9,123.3,60,123.3,60,123.3"/>
<path class="st7" d="M59.8,123C59.8,123,59.8,123,59.8,123c-0.1,0.1,0,0.1,0,0.1C59.9,123.2,59.9,123.1,59.8,123
	C59.9,123,59.9,123,59.8,123"/>
<path class="st7" d="M59.3,124.2C59.3,124.2,59.3,124.2,59.3,124.2c0.1,0.1,0.1,0,0.1,0C59.4,124.1,59.4,124.1,59.3,124.2
	C59.3,124.1,59.3,124.1,59.3,124.2"/>
<path class="st7" d="M58.9,123.8C58.9,123.8,59,123.7,58.9,123.8c0.1-0.1,0-0.1,0-0.1C58.8,123.6,58.8,123.7,58.9,123.8
	C58.8,123.7,58.8,123.8,58.9,123.8"/>
<path class="st7" d="M59,124C59,124,59,123.9,59,124c0.1-0.1,0-0.1,0-0.1C58.9,123.8,58.9,123.9,59,124C58.9,123.9,58.9,124,59,124"
	/>
<path class="st7" d="M59.1,124.1C59.2,124.1,59.2,124.1,59.1,124.1c0.1-0.1,0-0.1,0-0.1C59.1,124,59.1,124,59.1,124.1
	C59.1,124.1,59.1,124.1,59.1,124.1"/>
<path class="st7" d="M59.5,124.2C59.5,124.2,59.6,124.2,59.5,124.2c0.1,0.1,0.1,0,0.1,0C59.7,124.1,59.6,124.1,59.5,124.2
	C59.6,124.1,59.5,124.1,59.5,124.2"/>
<path class="st7" d="M60.1,123.7C60.1,123.7,60.1,123.6,60.1,123.7c-0.1-0.1-0.1,0-0.1,0C60,123.7,60,123.8,60.1,123.7
	C60.1,123.8,60.1,123.7,60.1,123.7"/>
<path class="st7" d="M60,124C60,124,60.1,123.9,60,124c0.1-0.1,0-0.1,0-0.1C60,123.8,59.9,123.9,60,124C59.9,123.9,60,124,60,124"/>
<path class="st7" d="M59.8,124.1C59.9,124.1,59.9,124.1,59.8,124.1c0.1-0.1,0-0.1,0-0.1C59.8,124,59.8,124,59.8,124.1
	C59.8,124.1,59.8,124.1,59.8,124.1"/>
<path class="st7" d="M61.7,123.5c0-0.2-0.2-0.4-0.4-0.4c-0.2,0-0.4,0.2-0.4,0.4c0,0.2,0.2,0.4,0.4,0.4
	C61.5,123.9,61.7,123.7,61.7,123.5"/>
<path class="st7" d="M61.2,122.9C61.2,122.8,61.1,122.8,61.2,122.9c-0.1-0.1-0.2,0-0.2,0C61,122.9,61.1,122.9,61.2,122.9
	C61.1,122.9,61.2,122.9,61.2,122.9"/>
<path class="st7" d="M60.6,123.5C60.6,123.5,60.7,123.4,60.6,123.5c0.1-0.1,0-0.2,0-0.2C60.5,123.3,60.5,123.3,60.6,123.5
	C60.5,123.4,60.5,123.5,60.6,123.5"/>
<path class="st7" d="M60.7,123.1C60.6,123.1,60.6,123.1,60.7,123.1c-0.1,0.1,0,0.2,0,0.2C60.7,123.2,60.7,123.2,60.7,123.1
	C60.7,123.1,60.7,123.1,60.7,123.1"/>
<path class="st7" d="M60.9,123C60.9,123,60.9,123,60.9,123c0.1-0.1,0-0.2,0-0.2C60.8,122.9,60.8,122.9,60.9,123
	C60.8,123,60.8,123,60.9,123"/>
<path class="st7" d="M61.5,122.9C61.5,122.8,61.4,122.8,61.5,122.9c-0.1-0.1-0.2,0-0.2,0C61.3,122.9,61.3,122.9,61.5,122.9
	C61.4,122.9,61.5,122.9,61.5,122.9"/>
<path class="st7" d="M61,124.2C61,124.2,61.1,124.2,61,124.2c0.1,0.1,0.2,0,0.2,0C61.2,124.1,61.1,124.1,61,124.2
	C61.1,124.1,61,124.1,61,124.2"/>
<path class="st7" d="M60.6,123.7C60.6,123.7,60.7,123.7,60.6,123.7c0.1-0.1,0-0.2,0-0.2C60.5,123.6,60.5,123.6,60.6,123.7
	C60.5,123.7,60.5,123.7,60.6,123.7"/>
<path class="st7" d="M60.7,123.9C60.7,123.9,60.7,123.9,60.7,123.9c0.1-0.1,0-0.2,0-0.2C60.6,123.8,60.6,123.8,60.7,123.9
	C60.6,123.9,60.6,123.9,60.7,123.9"/>
<path class="st7" d="M60.9,124.1C60.9,124.1,60.9,124.1,60.9,124.1c0.1-0.1,0-0.2,0-0.2C60.8,124,60.8,124,60.9,124.1
	C60.8,124.1,60.8,124.1,60.9,124.1"/>
<path class="st7" d="M61.3,124.2C61.3,124.2,61.3,124.2,61.3,124.2c0.1,0.1,0.2,0,0.2,0C61.5,124.1,61.4,124.1,61.3,124.2
	C61.3,124.1,61.3,124.1,61.3,124.2"/>
<path class="st7" d="M62,123.6C62,123.6,61.9,123.6,62,123.6c-0.1-0.1-0.2,0-0.2,0C61.8,123.7,61.9,123.7,62,123.6
	C61.9,123.7,62,123.7,62,123.6"/>
<path class="st7" d="M61.8,123.9C61.9,123.9,61.9,123.9,61.8,123.9c0.1-0.1,0-0.2,0-0.2C61.8,123.8,61.7,123.8,61.8,123.9
	C61.7,123.9,61.8,123.9,61.8,123.9"/>
<path class="st7" d="M61.6,124.1C61.7,124.1,61.7,124.1,61.6,124.1c0.1-0.1,0-0.2,0-0.2C61.6,124,61.6,124,61.6,124.1
	C61.6,124.1,61.6,124.1,61.6,124.1"/>
<path class="st0" d="M97.2,135.6c-9,11.4-22.7,18.1-37.1,18.1c-14.2,0-27.6-6.7-36.5-17.8l-11.6,13c13,16.1,31.4,22,48.5,22
	c15.6,0,35.2-6.3,48.4-22.3L97.2,135.6z"/>
<path class="st4" d="M97.2,135.6c-9,11.4-22.7,18.1-37.1,18.1c-14.2,0-27.6-6.7-36.5-17.8l-11.6,13c13,16.1,31.4,22,48.5,22
	c15.6,0,35.2-6.3,48.4-22.3L97.2,135.6z"/>
<path class="st7" d="M97.3,139.1c-9.3,10.6-22.7,16.8-37.2,16.9c-14.1,0-27.2-6.2-36.5-16.5L15,149c14.4,16.7,33.9,19.6,45.5,19.7
	c14,0,32.4-5.4,45.3-20L97.3,139.1z"/>
<path class="st8" d="M25.1,145.2l2.6,2.1c1,0.9,1.5,1.8,0.6,2.8c-0.4,0.5-1,0.7-1.7,0.5c0.5,0.7,0.4,1.5-0.1,2.2
	c-0.9,1.1-2.3,0.8-3.2,0l-2.7-2.2L25.1,145.2z M22.6,150.7l1.3,1.1c0.5,0.4,1,0.6,1.5,0c0.5-0.6,0.3-1.1-0.2-1.5l-1.3-1.1
	L22.6,150.7z M24.5,148.4l1.2,1c0.4,0.3,0.9,0.4,1.3,0c0.4-0.5,0.1-1-0.3-1.3l-1.1-0.9L24.5,148.4z"/>
<path class="st8" d="M33.2,151c1.9,1.1,2.1,3.2,1,5c-1.1,1.7-3,2.5-4.9,1.3c-1.9-1.1-2.1-3.2-1-5C29.4,150.6,31.3,149.9,33.2,151
	 M30,156.2c1.2,0.7,2.3,0,2.9-1c0.6-1.1,0.8-2.4-0.4-3.1c-1.2-0.7-2.3,0-2.9,1.1C29,154.2,28.8,155.5,30,156.2"/>
<path class="st8" d="M36.9,153.4l3.5,1.5c1.2,0.5,1.6,1.6,1.1,2.6c-0.3,0.8-0.9,1.2-1.7,1.2l0,0c0.6,0.5,0.5,1.3,0.3,1.9
	c-0.2,0.4-0.5,1.2-0.4,1.7l-1.4-0.6c0-0.5,0.3-1.1,0.4-1.7c0.2-0.7,0.1-1.1-0.7-1.5l-1.4-0.6l-1.1,2.5l-1.4-0.6L36.9,153.4z
	 M37.1,156.9l1.6,0.7c0.6,0.3,1.1,0.2,1.4-0.5c0.3-0.6,0-1.1-0.6-1.3l-1.6-0.7L37.1,156.9z"/>
<path class="st8" d="M43.4,156.1l2.9,0.8c1.8,0.5,2.8,2,2.2,4.2c-0.6,2-2,3.2-4.1,2.6l-2.9-0.8L43.4,156.1z M43.4,162.1l1.3,0.4
	c0.9,0.2,1.9-0.1,2.3-1.6c0.4-1.4,0.1-2.4-1.3-2.8l-1.1-0.3L43.4,162.1z"/>
<polygon class="st8" points="50.4,157.9 55.7,158.7 55.5,160 51.8,159.5 51.6,161 55,161.4 54.8,162.6 51.4,162.2 51.2,163.9 
	55,164.4 54.8,165.7 49.4,165 "/>
<path class="st8" d="M56.7,158.8l3.8,0.1c1.3,0,2.1,0.9,2,2c0,0.8-0.4,1.5-1.2,1.8v0c0.8,0.2,1,1,1,1.7c0,0.4,0,1.3,0.3,1.7l-1.6,0
	c-0.2-0.4-0.2-1.1-0.2-1.7c-0.1-0.7-0.4-1.1-1.2-1.1l-1.6,0l0,2.8l-1.6,0L56.7,158.8z M58.3,162l1.7,0c0.7,0,1.1-0.3,1.1-1
	c0-0.7-0.4-1-1.1-1l-1.7,0L58.3,162z"/>
<polygon class="st8" points="66.6,158.5 71.6,157.7 71.8,158.9 68.4,159.5 68.7,161.1 71.6,160.6 71.8,161.8 68.9,162.3 69.3,165.2 
	67.8,165.5 "/>
<path class="st8" d="M75.3,156.4c2.1-0.6,3.8,0.6,4.4,2.6c0.6,2-0.2,3.9-2.3,4.5c-2.1,0.6-3.8-0.5-4.4-2.5
	C72.5,159,73.2,157.1,75.3,156.4 M77.1,162.3c1.3-0.4,1.5-1.7,1.1-2.8c-0.4-1.2-1.2-2.2-2.5-1.8c-1.3,0.4-1.5,1.7-1.1,2.9
	C74.9,161.7,75.8,162.7,77.1,162.3"/>
<path class="st8" d="M79.6,155.2l3.5-1.6c1.1-0.5,2.3-0.1,2.7,0.9c0.4,0.8,0.3,1.5-0.3,2.1l0,0c0.8-0.1,1.3,0.4,1.6,1.1
	c0.2,0.4,0.6,1.2,1,1.4l-1.4,0.7c-0.4-0.3-0.6-1-0.9-1.4c-0.4-0.6-0.8-0.8-1.5-0.5l-1.4,0.7l1.2,2.5l-1.4,0.7L79.6,155.2z
	 M82.4,157.4l1.5-0.7c0.6-0.3,0.8-0.7,0.5-1.4c-0.3-0.6-0.8-0.7-1.4-0.4l-1.5,0.7L82.4,157.4z"/>
<path class="st8" d="M91.2,151.5c-0.5-0.5-1.3-0.6-2-0.2c-1.2,0.8-1,2-0.3,3.1c0.6,1,1.7,1.7,2.9,0.9c0.8-0.5,0.9-1.4,0.5-2.2
	l1.3-0.8c0.8,1.6,0.4,3.2-1,4.1c-1.8,1.2-3.8,0.5-4.9-1.2c-1.1-1.8-1-3.8,0.9-5c1.3-0.8,2.9-0.8,4,0.5L91.2,151.5z"/>
<polygon class="st8" points="91.9,148.1 96,144.7 96.8,145.7 94,148.1 94.9,149.2 97.6,147 98.3,147.9 95.7,150.2 96.8,151.5 
	99.8,149 100.6,150 96.5,153.5 "/>
<path class="st0" d="M91.4,78.5l12-12C93.1,56.2,78.5,48.9,60.6,48.6c-18.1-0.3-32.6,6.9-43,18.2l12.1,12.1
	c7.7-8.3,18.5-13.4,30.9-13.4C72.8,65.5,83.6,70.4,91.4,78.5"/>
<path class="st4" d="M91.4,78.5l12-12C93.1,56.2,78.5,48.9,60.6,48.6c-18.1-0.3-32.6,6.9-43,18.2l12.1,12.1
	c7.7-8.3,18.5-13.4,30.9-13.4C72.8,65.5,83.6,70.4,91.4,78.5z"/>
<path class="st7" d="M60.5,50.8C43.2,50.5,30,57.2,20.6,66.9l8.9,8.9c8.1-7.9,19.1-12.6,31.1-12.6c11.9,0,22.8,4.5,30.9,12.2
	l8.7-8.7C90.5,57.5,77,51.1,60.5,50.8"/>
<path class="st8" d="M27.8,63.6l1.3-0.9l6.2,4.4L34,67.9l-1.3-1l-2.2,1.5l0.4,1.6l-1.3,0.9L27.8,63.6z M30.2,67.2l1.5-1l-2.2-1.6
	l0,0L30.2,67.2z"/>
<path class="st8" d="M40.2,61.7c0.8,1.7,0.2,3.1-1.5,3.9c-1.7,0.8-3.1,0.5-4-1.3l-1.9-4l1.4-0.7l1.9,4c0.3,0.7,0.8,1.3,2,0.8
	c1-0.5,1.1-1.1,0.7-2l-1.9-4l1.4-0.7L40.2,61.7z"/>
<path class="st8" d="M43.1,61c0.3,0.9,1.1,1,1.9,0.8c0.5-0.2,1.3-0.6,1.1-1.3c-0.2-0.7-1.3-0.5-2.4-0.5c-1.1,0-2.2,0-2.6-1.3
	c-0.4-1.4,0.7-2.5,1.9-2.8c1.4-0.4,2.9-0.2,3.4,1.3l-1.4,0.5c-0.3-0.8-0.9-0.8-1.7-0.6c-0.5,0.1-1,0.5-0.8,1.1
	c0.2,0.5,0.5,0.5,2.3,0.4c0.5,0,2.1-0.2,2.6,1.3c0.4,1.2-0.3,2.5-2.1,3.1c-1.5,0.5-3.1,0.2-3.6-1.5L43.1,61z"/>
<polygon class="st8" points="49.6,55.7 47.5,56.1 47.2,54.8 53,53.8 53.2,55.1 51.1,55.5 52.1,61.2 50.6,61.4 "/>
<path class="st8" d="M54.8,53.6l3.8-0.1c1.3,0,2.1,0.8,2.1,1.9c0,0.8-0.3,1.5-1.1,1.8v0c0.8,0.2,1,0.9,1.1,1.6
	c0,0.4,0.1,1.3,0.4,1.7l-1.6,0.1c-0.2-0.4-0.2-1.1-0.3-1.7c-0.1-0.7-0.4-1.1-1.2-1l-1.6,0.1l0.1,2.8l-1.6,0.1L54.8,53.6z M56.5,56.8
	l1.7-0.1c0.7,0,1.1-0.3,1-1.1c0-0.7-0.4-1-1.1-0.9l-1.7,0.1L56.5,56.8z"/>
<path class="st8" d="M65,53.7l1.6,0.2l1.9,7.3l-1.6-0.2l-0.4-1.6l-2.6-0.3l-0.7,1.5l-1.6-0.2L65,53.7z M64.4,58l1.8,0.2l-0.6-2.7h0
	L64.4,58z"/>
<polygon class="st8" points="70.9,54.5 72.4,54.9 71,60.5 74.4,61.4 74.1,62.6 69.2,61.4 "/>
<rect x="73.4" y="59.2" transform="matrix(0.3309 -0.9437 0.9437 0.3309 -5.0711 112.7272)" class="st8" width="7.1" height="1.6"/>
<path class="st8" d="M82.7,58.4l1.4,0.7l-0.6,7.5L82.1,66l0.2-1.7l-2.4-1.1l-1.2,1.2l-1.4-0.7L82.7,58.4z M80.7,62.3l1.7,0.8
	l0.3-2.7l0,0L80.7,62.3z"/>
<polygon class="st8" points="88.1,61.1 89.4,62 89.2,67.6 89.2,67.6 91.8,63.7 93.1,64.5 89.1,70.4 87.8,69.5 88,63.9 88,63.9 
	85.4,67.8 84.1,67 "/>
<path class="st9" d="M164.1,106.4l-1-5.5h-4.9l-1,5.5h-5.2l5.7-26.6h5.8l5.7,26.6H164.1z M159.1,95.9l3.2,0l-1.6-9.2L159.1,95.9z"/>
<path class="st9" d="M174,106.9c-1.3,0-2.5-0.5-3.2-1.5c-0.8-1-1.1-2.5-1.1-4.4V86.1h4.8v13.8c0.1,1.9,0.4,2.3,1.3,2.3
	c1.1,0,1.7-0.7,1.7-2.8V86.1h4.8v20.2h-4.6V105C176.7,106.3,175.4,106.9,174,106.9L174,106.9z"/>
<path class="st9" d="M187.8,99.2v0.4v0.7c0,1.6,0.6,2.4,1.7,2.4c1,0,1.6-0.5,1.7-1.9c0-1.1-0.5-1.5-1.2-1.9l-2.8-1.3
	c-2.3-1-3.6-2.9-3.6-5.8c0-1.7,0.4-3.2,1.4-4.4c1-1.2,2.6-1.9,4.7-1.9c1.9,0,3.3,0.5,4.3,1.6s1.4,2.5,1.4,4.3v1.2H191v-0.4
	c-0.1-2-0.4-2.5-1.4-2.6c-0.8,0-1.5,0.5-1.5,1.7c0,0.8,0.3,1.4,1.5,1.9l2.4,1c2.6,1.1,3.7,2.9,3.7,5.9c0,2.1-0.6,3.8-1.8,4.9
	c-1.1,1.1-2.7,1.6-4.4,1.6c-2.3,0-3.9-0.6-4.9-1.8c-1-1.2-1.3-2.8-1.3-4.7v-1.1H187.8z"/>
<path class="st9" d="M198.8,105.3c-0.6-0.9-0.7-2.3-0.8-4.3V90.3h-2v-4.2l2,0v-5.6h4.8v5.6h2.3v4.2h-2.3v10.1c0.1,1.5,0.1,1.7,1,1.8
	c0.3,0,0.6,0,0.8-0.1l0.4-0.1v4.3l-0.3,0c-0.9,0.1-1.7,0.2-2.7,0.2h0C200.5,106.6,199.4,106.3,198.8,105.3"/>
<path class="st9" d="M205.8,106.4V86.1h4.6v1.5c0.8-1.2,1.9-2.1,3.3-2.1c0.3,0,0.5,0,0.8,0.1l0.3,0.1v5.5l-0.4,0
	c-0.4,0-0.8-0.1-1.2-0.1c-1.2,0-2.6,0.7-2.6,3.1v12.1H205.8z"/>
<path class="st9" d="M215.5,92.9v-0.4V92c0-2.3,0.6-3.9,1.7-5c1.1-1,2.6-1.4,4.1-1.4c2.4,0,4,0.6,4.9,1.8c0.9,1.2,1.1,2.8,1.1,4.5
	v10.2c0,1.8,0.1,2.6,0.5,3.6l0.2,0.5h-4.6l-0.1-0.2c-0.2-0.4-0.3-0.7-0.3-1.1c-0.9,1.4-2.1,1.9-3.7,1.9c-0.1,0-0.1,0-0.2,0
	c-3.1,0-4.2-3.3-4.2-6c0-3.7,1.3-5.5,4.2-6.4l2.3-0.8c1.1-0.4,1.3-0.7,1.3-1.9c-0.1-1.4-0.4-2-1.5-2c-1,0-1.4,0.7-1.5,2.2v0.9H215.5
	z M221.6,97.6c-1.5,0.4-1.9,1.1-2,2.8c0,1.5,0.4,2.3,1.1,2.3c0.9,0,2.1-0.7,2.1-2.6V97C222.4,97.3,222,97.5,221.6,97.6"/>
<rect x="229.4" y="79.8" class="st9" width="4.8" height="26.6"/>
<path class="st9" d="M236,86.1h4.8v20.2H236V86.1z M236.1,79.5h4.8v5h-4.8V79.5z"/>
<path class="st9" d="M242.6,92.9V92c0-2.3,0.6-3.9,1.7-5c1.1-1,2.6-1.4,4.1-1.4c2.4,0,4,0.6,4.9,1.8c0.9,1.2,1.1,2.8,1.1,4.5v10.2
	c0,1.8,0.1,2.6,0.5,3.6l0.2,0.5h-4.6l-0.1-0.2c-0.1-0.4-0.3-0.7-0.3-1.1c-0.9,1.4-2.1,1.9-3.7,1.9c-0.1,0-0.1,0-0.2,0
	c-3.1,0-4.2-3.3-4.2-6c0-3.7,1.3-5.5,4.2-6.4l2.3-0.8c1.1-0.4,1.3-0.7,1.3-1.9c-0.1-1.4-0.4-2-1.5-2c-1,0-1.4,0.7-1.5,2.1v0.9H242.6
	z M248.7,97.6c-1.5,0.4-1.9,1.1-2,2.8c0,1.5,0.4,2.3,1.1,2.3c0.9,0,2.1-0.7,2.1-2.6V97C249.5,97.3,249.1,97.5,248.7,97.6"/>
<path class="st9" d="M264.3,106.4V92.6c-0.1-1.9-0.4-2.3-1.3-2.3c-1.1,0-1.7,0.7-1.7,2.8v13.3h-4.8V86.1h4.6v1.3
	c0.9-1.2,2.2-1.8,3.7-1.8c1.3,0,2.5,0.5,3.2,1.5c0.8,1,1.1,2.5,1.1,4.4v14.8H264.3z"/>
<path class="st9" d="M153,113.9h11.6c5.4,0,9.1,3.2,9.1,9.9c0,4.7-2,8.4-5,9.1v0.1c2.4,0.4,5.9,1.8,5.9,10c0,4.7-1.7,11.2-10.5,11.2
	H153V113.9z M160.5,130h2.1c2.6,0,3.7-1.9,3.7-4.7c0-2.1-0.9-4.3-3.6-4.3h-2.1V130z M160.5,147.2h2.3c3,0,4.1-2.4,4.1-5.3
	c0-4-1.6-5.6-3.9-5.6h-2.4V147.2z"/>
<path class="st9" d="M187.7,155c-9.9,0-11.2-8.1-11.2-20.9c0-12.8,1.3-20.9,11.2-20.9c10.6,0,11.2,9.8,11.2,20.9
	S198.3,155,187.7,155 M187.6,148.7c3,0,3.5-3.6,3.5-14.6c0-11.1-0.4-14.6-3.5-14.6c-2.9,0-3.4,3.6-3.4,14.6
	C184.2,145.1,184.7,148.7,187.6,148.7"/>
<path class="st9" d="M201.4,113.9H214c6.4,0,8.6,5,8.6,10.5c0,5.9-1.9,8.8-5.4,9.8v0.1c4.8,0.8,5,4.6,5.1,10c0.1,8,0.4,8.8,1.4,9.3
	v0.5h-8.1c-0.6-1.4-0.8-3.6-0.8-8.2c0-7-0.8-8.5-3.1-8.5h-2.9v16.7h-7.5V113.9z M208.9,130.9h2.3c3,0,3.8-2.9,3.8-5.3
	c0-3.1-0.9-5.1-3.9-5.1h-2.3V130.9z"/>
<path class="st9" d="M225.6,113.9h11.1c7.4,0,10.6,4.9,10.6,18.9c0,14.6-1.5,21.5-11.3,21.5h-10.4V113.9z M233.1,147.2h2
	c3.5,0,4.7-1.8,4.7-13.8c0-9.8-0.6-12.5-4.6-12.5h-2.1V147.2z"/>
<polygon class="st9" points="249.8,113.9 268.3,113.9 268.3,121.6 257.3,121.6 257.3,129.7 267.6,129.7 267.6,137.3 257.3,137.3 
	257.3,146.5 268.8,146.5 268.8,154.2 249.8,154.2 "/>
<path class="st9" d="M270.8,113.9h12.6c6.4,0,8.6,5,8.6,10.5c0,5.9-1.9,8.8-5.4,9.8v0.1c4.8,0.8,5,4.6,5.1,10c0.1,8,0.4,8.8,1.4,9.3
	v0.5H285c-0.6-1.4-0.8-3.6-0.8-8.2c0-7-0.8-8.5-3.1-8.5h-2.9v16.7h-7.5V113.9z M278.3,130.9h2.3c3,0,3.8-2.9,3.8-5.3
	c0-3.1-0.9-5.1-3.9-5.1h-2.3V130.9z"/>
<polygon class="st9" points="305.2,113.9 323.6,113.9 323.6,121.6 312.7,121.6 312.7,129.7 322.9,129.7 322.9,137.3 312.7,137.3 
	312.7,154.2 305.2,154.2 "/>
<path class="st9" d="M335.7,155c-9.9,0-11.2-8.1-11.2-20.9c0-12.8,1.3-20.9,11.2-20.9c10.6,0,11.2,9.8,11.2,20.9
	S346.4,155,335.7,155 M335.7,148.7c3,0,3.5-3.6,3.5-14.6c0-11.1-0.4-14.6-3.5-14.6c-2.9,0-3.4,3.6-3.4,14.6
	C332.3,145.1,332.8,148.7,335.7,148.7"/>
<path class="st9" d="M349.5,113.9h12.6c6.4,0,8.6,5,8.6,10.5c0,5.9-1.9,8.8-5.4,9.8v0.1c4.8,0.8,5,4.6,5.1,10c0.1,8,0.4,8.8,1.4,9.3
	v0.5h-8.1c-0.6-1.4-0.8-3.6-0.8-8.2c0-7-0.8-8.5-3.1-8.5H357v16.7h-7.5V113.9z M357,130.9h2.3c3,0,3.8-2.9,3.8-5.3
	c0-3.1-0.9-5.1-3.9-5.1H357V130.9z"/>
<path class="st9" d="M387,127.9c0-5.9-0.5-8.5-3-8.5c-3,0-3.3,3.6-3.3,14.2c0,12,0.3,15.1,3.4,15.1c2.8,0,3.1-4,3.1-10.3h7.2v1.4
	c0,8.7-1.9,15.2-11.2,15.2c-9.6,0-10.3-9.1-10.3-21.2c0-10.3,0.4-20.7,11.1-20.7c6.6,0,10.2,3.6,10.2,13.1v1.7H387z"/>
<polygon class="st9" points="396.3,113.9 414.7,113.9 414.7,121.6 403.8,121.6 403.8,129.7 414,129.7 414,137.3 403.8,137.3 
	403.8,146.5 415.2,146.5 415.2,154.2 396.3,154.2 "/>
</svg>
