<svg data-name="Layer 1" xmlns="http://www.w3.org/2000/svg" width="642" height="608.421" viewBox="0 0 642 608.421" class="featureSvg_B6OP" role="img"><path d="M232 116a115.853 115.853 0 0 1-49.69 95.19 114.45 114.45 0 0 1-13.55 8.15c-1.56.8-3.13 1.56-4.73 2.28-1.44.66-2.89 1.28-4.36 1.87a116.42 116.42 0 0 1-57.57 7.68q-5.07-.6-10.01-1.65l-.43-.09a113.319 113.319 0 0 1-20.15-6.27A116.012 116.012 0 1 1 232 116Z" fill="#f1f1f1"></path><path d="M137.36 94.35c-.1-.12-.21-.23-.32-.34A33.444 33.444 0 0 0 90 93.53c-.07.06-.13.12-.19.18-.08.07-.15.14-.22.21a33.427 33.427 0 0 0-9.82 23.68v21a4.507 4.507 0 0 0 4.5 4.5h58a4.507 4.507 0 0 0 4.5-4.5v-21a33.348 33.348 0 0 0-9.41-23.25Z" fill="#2f2e41"></path><circle cx="114.614" cy="118.331" r="24.561" fill="#ffb7b7"></circle><path d="m140.43 116.24-2.9-20.26a2.537 2.537 0 0 0-.89-1.59 2.627 2.627 0 0 0-.53-.33c-14.85-6.95-29.91-6.95-44.76-.02a2.448 2.448 0 0 0-.55.35c-.06.05-.12.11-.18.17a2.532 2.532 0 0 0-.7 1.51l-1.94 20.29a2.505 2.505 0 0 0 .64 1.92 2.477 2.477 0 0 0 1.44.78 1.838 1.838 0 0 0 .41.04h4.92a2.523 2.523 0 0 0 2.27-1.44l2.13-4.56a1.494 1.494 0 0 1 2.84.45l.42 3.36a2.512 2.512 0 0 0 2.48 2.19h32.43a2.404 2.404 0 0 0 1.21-.32 2.532 2.532 0 0 0 .68-.54 2.506 2.506 0 0 0 .58-2Z" fill="#2f2e41"></path><path d="m175.35 187.89 6.96 23.3a114.45 114.45 0 0 1-13.55 8.15c-1.56.8-3.13 1.56-4.73 2.28l-7.21-30.91-2.8-11.99 18-2ZM92.52 184.02l-.6 31.48-.26 13.93a113.319 113.319 0 0 1-20.15-6.27l2.39-29.82.6-7.52Z" fill="#ffb7b7"></path><path d="m175.35 187.89-18.08 2.71.22 2.97 2.18 29.92a116.42 116.42 0 0 1-57.57 7.68q-5.07-.6-10.01-1.65c1.48-6.22 2.76-11.82 1.18-12.92a11.98 11.98 0 0 1-1.35-1.1c-7.37-7.03-4.65-22.9-4.65-22.9l-13.37.74-4.63.26s2-32 11-32h11l53-5s15-5 19 2c2.1 3.67 5.84 11.45 8.93 18.03 2.8 5.98 5.07 10.97 5.07 10.97Z" fill="#2f2e41"></path><path d="M641.993 117.278a115.847 115.847 0 0 1-48.883 93.352c-.26.18-.53.37-.8.56-.28.2-.57.4-.86.59q-2.52 1.74-5.14 3.33-3.69 2.25-7.55 4.23c-.08.04-.17.08-.25.12q-2.22 1.14-4.48 2.16c-.05.02-.09.04-.14.06-.35.16-.72.33-1.08.48-2.79 1.24-5.64 2.37-8.54 3.37q-3.705 1.305-7.52 2.34a113.73 113.73 0 0 1-15.85 3.18 115.588 115.588 0 0 1-13.76.94c-.38.01-.76.01-1.14.01-2.51 0-5.01-.08-7.48-.24-2.16-.14-4.3-.33-6.42-.59-3.27-.39-6.5-.91-9.68-1.59-.14-.02-.28-.05-.42-.08-.11-.02-.23-.05-.34-.07-3.2-.67-6.35-1.49-9.44-2.43q-4.365-1.32-8.57-2.98a107.327 107.327 0 0 1-7.38-3.2c-.5-.23-.99-.47-1.48-.71-1.66-.81-3.3-1.66-4.9-2.56q-2.895-1.605-5.69-3.37c-2.35-1.48-4.65-3.04-6.88-4.69A116.005 116.005 0 0 1 527.65.012c63.608.883 115.03 53.655 114.343 117.266Z" fill="#f1f1f1"></path><path d="M501.66 229.43c-3.2-.67-6.35-1.49-9.44-2.43l10.61-65.79 10.99-.34 19.93-.63 10.22-.32s7.25 31.86 12.78 67.95a113.73 113.73 0 0 1-15.85 3.18 115.588 115.588 0 0 1-13.76.94c-.38.01-.76.01-1.14.01-2.51 0-5.01-.08-7.48-.24-2.16-.14-4.3-.33-6.42-.59-3.27-.39-6.5-.91-9.68-1.59-.14-.02-.28-.05-.42-.08-.11-.02-.23-.05-.34-.07Z" fill="#cbcbcb"></path><path d="M502.42 229.58c-.14-.02-.28-.05-.42-.08-.11-.02-.23-.05-.34-.07-3.2-.67-6.35-1.49-9.44-2.43q-4.365-1.32-8.57-2.98a107.327 107.327 0 0 1-7.38-3.2c-.5-.23-.99-.47-1.48-.71l-.88-49.26 27-11.57s.09.72 12.91 1.59c2.44 7.96-11.4 68.71-11.4 68.71ZM583.12 168.52l-5.09 26.75.48 24.19q-2.22 1.14-4.48 2.16c-.05.02-.09.04-.14.06-.35.16-.72.33-1.08.48-2.79 1.24-5.64 2.37-8.54 3.37q-3.705 1.305-7.52 2.34a113.73 113.73 0 0 1-15.85 3.18 115.588 115.588 0 0 1-13.76.94l-.53-42.87c-1.12-13.82 2.59-22.96 7.14-28.88 24.25-3.24 23.71-3.53 23.71-3.53l25.71 11.57Z" fill="#2f2e41"></path><path d="m485.48 174.71-1.83 49.31a107.327 107.327 0 0 1-7.38-3.2c-.5-.23-.99-.47-1.48-.71-1.66-.81-3.3-1.66-4.9-2.56q-2.895-1.605-5.69-3.37l9.71-43.33ZM593.11 210.63c-.26.18-.53.37-.8.56-.28.2-.57.4-.86.59q-2.52 1.74-5.14 3.33-3.69 2.25-7.55 4.23c-.08.04-.17.08-.25.12q-2.287 1.174-4.617 2.222l-.003-.002-1.83-49.48 11.06-3.68.51-.17Z" fill="#2f2e41"></path><ellipse cx="805.224" cy="260.493" rx="28.603" ry="28.529" transform="rotate(-73.66 568.39 373.869)" fill="#9f616a"></ellipse><path d="M497.492 121.875v-11.131s-8.977-10.573.898-13.236c0 0 2.693-26.632 26.032-14.204 0 0 32.316-5.326 28.725 13.316 0 0 8.08-4.867 5.386 7.562l-5.208 20.02s2.515-13.225-5.564-15l-4.488-2.664s-12.567 12.428-31.418-2.663c0 0-8.08-1.928-7.182 6.061s-7.181 11.939-7.181 11.939Z" fill="#2f2e41"></path><path d="M437 466a115.853 115.853 0 0 1-49.69 95.19c-.28.2-.57.4-.86.59q-2.52 1.74-5.14 3.33-3.69 2.25-7.55 4.23c-1.56.8-3.13 1.56-4.73 2.28-.4.18-.81.37-1.22.54-2.79 1.24-5.64 2.37-8.54 3.37a114.204 114.204 0 0 1-23.37 5.52 116.296 116.296 0 0 1-14.9.95c-2.51 0-5.01-.08-7.48-.24-2.16-.14-4.3-.33-6.42-.59-3.41-.41-6.78-.96-10.1-1.67-.11-.02-.23-.05-.34-.07a113.319 113.319 0 0 1-20.15-6.27c-1.77-.74-3.52-1.51-5.24-2.34q-3.255-1.53-6.38-3.27A116.009 116.009 0 1 1 437 466Z" fill="#f1f1f1"></path><circle cx="317.813" cy="468.686" r="25.903" fill="#ffb8b8"></circle><path d="M307.1 581.17c-3.41-.41-6.78-.96-10.1-1.67l3.15-70.88.45-.47 6.45-6.81h20.51l7.57 7.33.64.63 16.19 15.51 7.31 50.72a114.204 114.204 0 0 1-23.37 5.52 116.296 116.296 0 0 1-14.9.95c-2.51 0-5.01-.08-7.48-.24-2.16-.14-4.3-.33-6.42-.59Z" fill="#cbcbcb"></path><path d="M271.27 570.82q-3.255-1.53-6.38-3.27l-.35-31.95 2.44-1.49a.804.804 0 0 1 .09-.04l27.69-16.82 5.81-9.44.03.34 1.71 19.9a346.744 346.744 0 0 1 11.21 53.71c-2.16-.14-4.3-.33-6.42-.59-3.41-.41-6.78-.96-10.1-1.67-.11-.02-.23-.05-.34-.07a113.319 113.319 0 0 1-20.15-6.27c-1.77-.74-3.52-1.51-5.24-2.34ZM359.27 575.53a114.204 114.204 0 0 1-23.37 5.52 91.267 91.267 0 0 1-1.21-19.55c2.16-34.53-2.82-53.69-.66-53.69l1.1.86 13.59 10.74 17.89 6.56h.01l12.31 4.51 2.17.8v1.03c.01 3.56.03 16.02.21 32.8q-3.69 2.25-7.55 4.23c-1.56.8-3.13 1.56-4.73 2.28-.4.18-.81.37-1.22.54-2.79 1.24-5.64 2.37-8.54 3.37ZM293.308 476.79s2.2-3.865 1.689-16.777 19.15-5.609 35.578-6.84 12.952 21.556 12.952 21.556 1.185-1.355 3.723-12.353-3.225-21.958-3.225-21.958c-1.697-11.557-10.842-7.853-10.842-7.853 4.404 1.715 3.559 5.38 3.559 5.38-3.728-6.536-12.874-2.832-12.874-2.832-12.197-7.653-24.558 2.426-24.558 2.426-14.735 3.344-6.094 15.062-6.094 15.062-14.818 7.488.092 24.189.092 24.189Z" fill="#2f2e41"></path><path d="M252.32 559.49c.38-8.79.55-14.46.35-15.25-1.03-4.12 13.03-9.64 14.31-10.13a.804.804 0 0 1 .09-.04l2.86 1.53 1.34 35.22q-3.255-1.53-6.38-3.27a115.18 115.18 0 0 1-12.57-8.06ZM381.31 565.11q-3.69 2.25-7.55 4.23c-1.56.8-3.13 1.56-4.73 2.28-.4.18-.81.37-1.22.54l-4.5-44.43 2.63-1.92s.24.06.67.16h.01c2.11.52 8.59 2.24 12.31 4.51a7.714 7.714 0 0 1 2.17 1.83 2.223 2.223 0 0 1 .51 1.58c-.12 1.16 1.88 12.16 4.84 27.89q-2.52 1.74-5.14 3.33Z" fill="#2f2e41"></path><path fill="#f1f1f1" d="M158.016 489.633H115V296.788h2v190.845h41.016v2zM527.008 489.633h-43.016v-2h41.016V295h2v194.633z"></path><circle cx="526" cy="227.921" r="26.436" fill="#7caed9"></circle><path fill="#fff" d="m523.481 239.081-7.913-10.174 4.602-3.579 3.746 4.817 12.657-13.36 4.232 4.009-17.324 18.287z"></path><circle cx="116" cy="229.984" r="26.436" fill="#7caed9"></circle><path fill="#fff" d="m113.481 241.144-7.913-10.174 4.602-3.579 3.746 4.817 12.657-13.36 4.232 4.009-17.324 18.287z"></path><circle cx="321" cy="581.984" r="26.436" fill="#7caed9"></circle><path fill="#fff" d="m318.481 593.144-7.913-10.174 4.602-3.579 3.746 4.817 12.657-13.36 4.232 4.009-17.324 18.287z"></path></svg>