<svg width="88" height="74" viewBox="0 0 88 74" fill="none" xmlns="http://www.w3.org/2000/svg">
<path opacity="0.1" d="M86.8845 50.8813C84.5202 38.9592 70.6689 29.4305 67.9673 17.0068C63.0572 1.20034 46.8731 -1.29868 36.3563 5.56603C19.6925 16.4433 37.4693 19.1425 4.79696 44.8774C-3.27059 51.2319 -0.699902 79.282 24.6801 72.8446C38.3385 69.3802 42.4906 68.8941 48.6343 68.3236C64.1195 66.886 90.8531 70.8943 86.8845 50.8813Z" fill="#367CFF"/>
<path d="M68.3853 53.8694L44.4513 66.5102L20.5535 53.8694V34.7808H68.3853V53.8694Z" fill="white"/>
<path d="M44.4513 66.704C44.4197 66.7041 44.3885 66.6963 44.3606 66.6814L20.4635 54.0406C20.4325 54.0242 20.4064 53.9997 20.3882 53.9696C20.37 53.9396 20.3604 53.9052 20.3602 53.87V34.7808C20.3602 34.7294 20.3807 34.6801 20.417 34.6437C20.4534 34.6074 20.5027 34.587 20.5541 34.587H68.3853C68.4367 34.587 68.4861 34.6074 68.5224 34.6437C68.5588 34.6801 68.5792 34.7294 68.5792 34.7808V53.8694C68.5791 53.9045 68.5694 53.939 68.5512 53.969C68.533 53.9991 68.507 54.0236 68.4759 54.04L44.5419 66.6809C44.5141 66.6959 44.483 66.7039 44.4513 66.704ZM20.7474 53.7529L44.4513 66.291L68.1914 53.7526V34.9747H20.7474V53.7529Z" fill="#262626"/>
<path d="M68.3854 30.6847L44.4514 18.044L55.2064 12.86L79.1404 25.5009L68.3854 30.6847Z" fill="white"/>
<path d="M68.3854 30.8786C68.3538 30.8786 68.3228 30.8709 68.2948 30.8563L44.3608 18.2154C44.3291 18.1986 44.3027 18.1733 44.2845 18.1424C44.2662 18.1115 44.2569 18.0762 44.2576 18.0403C44.2583 18.0044 44.2688 17.9694 44.2882 17.9392C44.3075 17.909 44.3349 17.8848 44.3672 17.8692L55.1222 12.6851C55.1495 12.6719 55.1796 12.6653 55.21 12.6658C55.2404 12.6664 55.2702 12.6741 55.297 12.6884L79.231 25.3293C79.2627 25.3461 79.2891 25.3713 79.3074 25.4022C79.3256 25.4331 79.3349 25.4684 79.3342 25.5043C79.3336 25.5402 79.323 25.5751 79.3036 25.6053C79.2843 25.6355 79.2569 25.6598 79.2246 25.6754L68.4696 30.8594C68.4433 30.8721 68.4146 30.8786 68.3854 30.8786ZM44.8815 18.0516L68.3894 30.4673L78.7103 25.4926L55.2024 13.0772L44.8815 18.0516Z" fill="#262626"/>
<path d="M20.5535 30.6847L44.4875 18.044L33.7325 12.86L9.79846 25.5009L20.5535 30.6847Z" fill="white"/>
<path d="M20.5535 30.8786C20.5243 30.8786 20.4955 30.872 20.4693 30.8594L9.71487 25.6754C9.68256 25.6598 9.65521 25.6355 9.63586 25.6053C9.61651 25.5751 9.60592 25.5402 9.60526 25.5043C9.6046 25.4684 9.6139 25.4331 9.63213 25.4022C9.65036 25.3713 9.6768 25.3461 9.70851 25.3293L33.6425 12.6884C33.6693 12.6741 33.6991 12.6664 33.7295 12.6658C33.7599 12.6653 33.79 12.6719 33.8173 12.6851L44.5723 17.8692C44.6046 17.8848 44.632 17.909 44.6513 17.9392C44.6707 17.9694 44.6812 18.0044 44.6819 18.0403C44.6826 18.0762 44.6733 18.1115 44.655 18.1424C44.6368 18.1733 44.6104 18.1986 44.5787 18.2154L20.6447 30.8563C20.6166 30.8711 20.5853 30.8787 20.5535 30.8786ZM10.2286 25.493L20.5495 30.4676L44.0574 18.0519L33.7365 13.0772L10.2286 25.493Z" fill="#262626"/>
<path d="M20.5535 30.6847L44.4875 43.3256L32.1814 50.0605L8.24744 37.4198L20.5535 30.6847Z" fill="white"/>
<path d="M32.1814 50.2544C32.1499 50.2544 32.1188 50.2467 32.0909 50.2319L8.15688 37.591C8.12598 37.5746 8.10008 37.5502 8.08194 37.5203C8.0638 37.4904 8.05409 37.4561 8.05384 37.4211C8.05358 37.3862 8.0628 37.3518 8.0805 37.3216C8.0982 37.2914 8.12374 37.2666 8.15439 37.2498L20.4604 30.5147C20.4886 30.4993 20.5201 30.4911 20.5521 30.4909C20.5842 30.4907 20.6158 30.4984 20.6441 30.5135L44.5781 43.1544C44.609 43.1708 44.6349 43.1952 44.653 43.2251C44.6712 43.255 44.6809 43.2893 44.6811 43.3243C44.6814 43.3593 44.6722 43.3936 44.6545 43.4238C44.6367 43.454 44.6112 43.4788 44.5806 43.4956L32.2745 50.2307C32.246 50.2463 32.214 50.2544 32.1814 50.2544ZM8.65693 37.4167L32.1797 49.8404L44.0782 43.3286L20.5552 30.9048L8.65693 37.4167Z" fill="#262626"/>
<path d="M68.3854 30.6847L44.4514 43.3256L56.7575 50.0605L80.6915 37.4198L68.3854 30.6847Z" fill="white"/>
<path d="M56.7577 50.2544C56.7252 50.2544 56.6932 50.2462 56.6647 50.2307L44.3586 43.4956C44.328 43.4788 44.3024 43.454 44.2847 43.4238C44.267 43.3936 44.2578 43.3593 44.2581 43.3243C44.2583 43.2893 44.268 43.255 44.2862 43.2251C44.3043 43.1952 44.3302 43.1708 44.3611 43.1544L68.2951 30.5135C68.3234 30.4984 68.355 30.4907 68.3871 30.4909C68.4191 30.4911 68.4506 30.4993 68.4787 30.5147L80.7848 37.2498C80.8154 37.2666 80.841 37.2914 80.8587 37.3216C80.8764 37.3518 80.8856 37.3862 80.8853 37.4211C80.8851 37.4561 80.8754 37.4904 80.8572 37.5203C80.8391 37.5502 80.8132 37.5746 80.7823 37.591L56.8483 50.2319C56.8204 50.2467 56.7893 50.2544 56.7577 50.2544ZM44.8613 43.3286L56.7596 49.8404L80.2826 37.4167L68.3841 30.9048L44.8613 43.3286Z" fill="#262626"/>
<path d="M44.4875 18.044L20.5535 30.6847L44.4513 43.3256L68.3853 30.6847L44.4875 18.044Z" fill="#262626"/>
<path d="M44.6452 43.3255H44.2574V66.5102H44.6452V43.3255Z" fill="#262626"/>
<path d="M31.0416 29.5371C31.0095 29.5371 30.9782 29.5271 30.9521 29.5084C30.9185 29.4846 30.8958 29.4485 30.8888 29.408C30.8819 29.3674 30.8914 29.3258 30.9152 29.2922C30.9439 29.2517 33.747 25.1992 30.6177 21.5046C30.0638 20.8473 29.3729 20.3191 28.5933 19.957C27.8138 19.5948 26.9645 19.4075 26.1049 19.4083H26.0627C26.3599 20.4406 26.3069 21.3585 25.8861 22.0627C25.7068 22.3809 25.4422 22.6427 25.1221 22.8186C24.8021 22.9946 24.4392 23.0776 24.0745 23.0585C23.7726 23.0337 23.4844 22.9215 23.2453 22.7355C23.0062 22.5495 22.8266 22.2978 22.7283 22.0112C22.3842 21.1135 22.7439 20.243 23.6918 19.682C24.2924 19.3508 24.9597 19.1589 25.6444 19.1204C25.4217 18.5298 25.132 17.9667 24.7811 17.442C23.6512 15.7163 21.5919 14.5217 19.131 14.1645C17.0455 13.8619 15.0468 14.2183 14.0385 15.0723C14.0071 15.0989 13.9664 15.1119 13.9254 15.1085C13.8844 15.1051 13.8465 15.0855 13.8199 15.0541C13.7933 15.0227 13.7803 14.982 13.7837 14.941C13.7872 14.9 13.8067 14.8621 13.8381 14.8355C14.9111 13.9267 17.0061 13.5426 19.1755 13.8583C21.7244 14.2284 23.862 15.4728 25.0408 17.2728C25.4229 17.8436 25.7338 18.4591 25.9664 19.1055C26.8937 19.0832 27.8141 19.2692 28.6599 19.6499C29.5057 20.0305 30.2553 20.5961 30.8536 21.3049C34.1407 25.1854 31.1974 29.4299 31.1674 29.4724C31.153 29.4924 31.1341 29.5087 31.1123 29.52C31.0904 29.5312 31.0662 29.5371 31.0416 29.5371ZM25.7451 19.4196C25.0812 19.4479 24.4329 19.6291 23.8505 19.9491C23.0322 20.4333 22.7291 21.1446 23.0187 21.9003C23.0972 22.1318 23.2414 22.3355 23.4338 22.4863C23.6262 22.6372 23.8584 22.7287 24.1019 22.7496C24.4086 22.7634 24.7131 22.6915 24.9813 22.5421C25.2495 22.3927 25.4708 22.1717 25.6206 21.9037C26.0068 21.2569 26.0421 20.3972 25.7446 19.4196H25.7451Z" fill="#292A2E"/>
<path d="M11.3615 17.5731C11.098 17.6522 10.8139 17.6254 10.5698 17.4983C10.3257 17.3711 10.1409 17.1537 10.0547 16.8924C9.96853 16.631 9.98777 16.3463 10.1083 16.0989C10.2289 15.8515 10.4413 15.661 10.7003 15.5678C10.9592 15.4747 11.2443 15.4863 11.4949 15.6003C11.7454 15.7142 11.9416 15.9214 12.0416 16.1778C12.1416 16.4342 12.1376 16.7195 12.0304 16.973C11.9232 17.2265 11.7213 17.4281 11.4676 17.5349C11.433 17.5496 11.3976 17.5623 11.3615 17.5731ZM10.8458 15.8496C10.8207 15.8571 10.796 15.866 10.7718 15.8762C10.5934 15.9515 10.4513 16.0934 10.376 16.2718C10.3006 16.4503 10.2979 16.651 10.3684 16.8314C10.4389 17.0118 10.5771 17.1576 10.7534 17.2376C10.9298 17.3177 11.1304 17.3257 11.3126 17.26C11.4948 17.1943 11.6441 17.0601 11.7288 16.8859C11.8135 16.7117 11.8269 16.5114 11.766 16.3275C11.7052 16.1436 11.5749 15.9908 11.4031 15.9015C11.2312 15.8122 11.0312 15.7936 10.8458 15.8496Z" fill="#292A2E"/>
<path d="M11.3598 15.1426C11.1104 15.217 10.8424 15.1967 10.6072 15.0855C10.3719 14.9742 10.1861 14.78 10.0854 14.54C10.0047 14.3477 9.98287 14.1357 10.0226 13.9309C10.0624 13.7261 10.162 13.5377 10.3088 13.3895C10.4557 13.2414 10.6432 13.1401 10.8476 13.0984C11.052 13.0568 11.2642 13.0768 11.4573 13.1557C11.6503 13.2347 11.8157 13.3692 11.9323 13.5421C12.049 13.715 12.1118 13.9187 12.1127 14.1273C12.1136 14.3359 12.0526 14.5401 11.9375 14.7141C11.8224 14.888 11.6582 15.0239 11.4659 15.1046C11.4312 15.1191 11.3958 15.1318 11.3598 15.1426ZM10.8447 13.4189C10.8192 13.4266 10.7942 13.4355 10.7698 13.4458C10.5878 13.5222 10.4436 13.6677 10.3689 13.8504C10.2943 14.0331 10.2952 14.238 10.3714 14.42C10.4271 14.5526 10.52 14.6664 10.6389 14.7474C10.7578 14.8284 10.8976 14.8732 11.0415 14.8764C11.1853 14.8796 11.327 14.841 11.4494 14.7654C11.5718 14.6897 11.6696 14.5803 11.7311 14.4502C11.7926 14.3201 11.8151 14.175 11.7958 14.0324C11.7766 13.8898 11.7164 13.7559 11.6226 13.6468C11.5289 13.5377 11.4055 13.4581 11.2674 13.4176C11.1293 13.3771 10.9825 13.3775 10.8447 13.4188V13.4189Z" fill="#292A2E"/>
<path d="M11.0587 16.2395C11.8204 16.2395 12.4379 15.8271 12.4379 15.3183C12.4379 14.8096 11.8204 14.3972 11.0587 14.3972C10.297 14.3972 9.67957 14.8096 9.67957 15.3183C9.67957 15.8271 10.297 16.2395 11.0587 16.2395Z" fill="white"/>
<path d="M11.6691 16.3073C11.4714 16.3657 11.2662 16.3952 11.0601 16.3947C10.1995 16.3947 9.52454 15.9232 9.52454 15.3197C9.52454 14.7162 10.1975 14.243 11.0577 14.2421C11.4328 14.2349 11.8017 14.3373 12.1194 14.5368C12.2621 14.6111 12.3817 14.7231 12.4652 14.8606C12.5487 14.9981 12.5929 15.1559 12.593 15.3167C12.5932 15.4776 12.5492 15.6354 12.466 15.7731C12.3827 15.9108 12.2634 16.023 12.1208 16.0976C11.9815 16.1894 11.8293 16.2601 11.6691 16.3073ZM10.5428 14.6261C10.1284 14.7502 9.83459 15.018 9.83474 15.3189C9.83474 15.7341 10.3958 16.0845 11.0601 16.0839C11.3739 16.0905 11.6828 16.0056 11.9491 15.8395C12.049 15.7935 12.1336 15.7198 12.1928 15.6271C12.2521 15.5345 12.2836 15.4268 12.2835 15.3169C12.2834 15.2069 12.2517 15.0993 12.1923 15.0067C12.1329 14.9142 12.0481 14.8407 11.9482 14.7948C11.6817 14.6291 11.3726 14.5447 11.0588 14.552C10.8841 14.5515 10.7103 14.5765 10.5428 14.6261Z" fill="#292A2E"/>
<path d="M11.397 16.2114L11.3645 14.42L10.919 14.402L10.8878 16.2324L11.397 16.2114Z" fill="#292A2E"/>
<path d="M9.22893 15.7081C9.30757 15.7081 9.37132 15.6443 9.37132 15.5657C9.37132 15.4871 9.30757 15.4233 9.22893 15.4233C9.1503 15.4233 9.08655 15.4871 9.08655 15.5657C9.08655 15.6443 9.1503 15.7081 9.22893 15.7081Z" fill="#292A2E"/>
<path d="M9.34014 14.9462C9.41878 14.9462 9.48252 14.8825 9.48252 14.8039C9.48252 14.7252 9.41878 14.6615 9.34014 14.6615C9.2615 14.6615 9.19775 14.7252 9.19775 14.8039C9.19775 14.8825 9.2615 14.9462 9.34014 14.9462Z" fill="#292A2E"/>
<path d="M55.4123 20.5923C55.3791 20.5923 55.3468 20.5816 55.3201 20.5619C55.2934 20.5422 55.2737 20.5144 55.264 20.4826C54.7495 18.5615 54.6123 16.5588 54.8598 14.5854C55.2607 11.7005 56.8518 7.9143 62.1543 6.2564C62.9004 6.01652 63.6657 5.84107 64.4418 5.73199C64.6916 4.1715 65.6421 2.4787 67.7678 1.31077C72.8183 -1.46433 76.2298 1.02554 76.2636 1.05098C76.2965 1.07566 76.3182 1.1124 76.3241 1.15312C76.3299 1.19385 76.3193 1.23521 76.2946 1.26812C76.2699 1.30103 76.2332 1.32279 76.1925 1.3286C76.1517 1.33442 76.1104 1.32382 76.0775 1.29914C76.0452 1.27495 72.7849 -1.09209 67.9173 1.58283C65.9311 2.67429 65.0218 4.24083 64.7633 5.69508C67.1021 5.46475 68.2221 6.24492 68.7248 6.83416C69.0358 7.1885 69.2357 7.62652 69.2995 8.09365C69.3633 8.56078 69.2883 9.03637 69.0837 9.46114C68.922 9.80448 68.66 10.0907 68.3323 10.282C68.0046 10.4734 67.6265 10.5608 67.248 10.5328C65.9419 10.4561 64.861 9.35738 64.4947 7.73345C64.3738 7.18372 64.3416 6.61821 64.3994 6.05833C63.6695 6.1632 62.9495 6.32875 62.2471 6.55327C58.1143 7.84543 55.7327 10.5627 55.1669 14.629C54.9245 16.5576 55.0582 18.5149 55.5605 20.3927C55.5677 20.4159 55.5692 20.4404 55.5651 20.4643C55.561 20.4882 55.5514 20.5108 55.537 20.5303C55.5226 20.5498 55.5038 20.5657 55.4821 20.5766C55.4604 20.5875 55.4365 20.5932 55.4123 20.5932V20.5923ZM64.7157 6.01956C64.6511 6.56877 64.6786 7.12492 64.7973 7.66505C65.1324 9.15063 66.1015 10.1546 67.2662 10.223C67.5836 10.2458 67.9005 10.172 68.1753 10.0115C68.4501 9.85095 68.67 9.6111 68.8061 9.32341C68.9834 8.95299 69.0478 8.53859 68.9913 8.13182C68.9349 7.72505 68.76 7.34388 68.4884 7.03579C67.7631 6.18474 66.4396 5.84103 64.7157 6.01956Z" fill="#292A2E"/>
<path d="M79.8765 2.6186C79.6676 2.61816 79.4631 2.55866 79.2866 2.44696C79.11 2.33526 78.9687 2.17592 78.8788 1.98733C78.789 1.79874 78.7543 1.58858 78.7787 1.38111C78.8032 1.17364 78.8859 0.977319 79.0171 0.814804C79.1484 0.652289 79.3229 0.530204 79.5206 0.462641C79.7183 0.395077 79.931 0.384788 80.1343 0.432962C80.3376 0.481136 80.5231 0.585809 80.6694 0.734899C80.8158 0.88399 80.917 1.07142 80.9613 1.27556C80.9961 1.43738 80.9942 1.60493 80.9559 1.76594C80.9175 1.92695 80.8436 2.07734 80.7396 2.2061C80.6356 2.33486 80.5041 2.43872 80.3548 2.5101C80.2055 2.58147 80.0421 2.61855 79.8765 2.6186ZM79.8789 0.713311C79.7139 0.713307 79.553 0.764471 79.4183 0.859751C79.2836 0.955031 79.1818 1.08974 79.1269 1.2453C79.072 1.40087 79.0667 1.56963 79.1117 1.72834C79.1568 1.88704 79.2499 2.02788 79.3783 2.13143C79.5068 2.23498 79.6641 2.29615 79.8288 2.30651C79.9934 2.31687 80.1572 2.27591 80.2976 2.18927C80.438 2.10263 80.5481 1.97458 80.6126 1.82277C80.6772 1.67095 80.6931 1.50285 80.6581 1.34163C80.6203 1.16326 80.5221 1.00338 80.3802 0.888925C80.2383 0.774473 80.0612 0.712451 79.8789 0.713311Z" fill="#292A2E"/>
<path d="M79.4096 5.15005C79.1253 5.15003 78.8519 5.04102 78.6455 4.84547C78.4392 4.64992 78.3157 4.3827 78.3004 4.09884C78.2852 3.81497 78.3793 3.53605 78.5635 3.3195C78.7477 3.10296 79.0079 2.96526 79.2905 2.93476C79.5731 2.90426 79.8567 2.98328 80.0828 3.15555C80.309 3.32782 80.4605 3.58022 80.5061 3.86081C80.5518 4.1414 80.4881 4.42881 80.3282 4.66388C80.1684 4.89895 79.9245 5.06379 79.6468 5.12446C79.5688 5.14146 79.4893 5.15004 79.4096 5.15005ZM79.4135 3.2446C79.3561 3.24463 79.2989 3.25082 79.2429 3.26306C79.0447 3.30657 78.8708 3.42437 78.7569 3.59221C78.643 3.76005 78.5977 3.96517 78.6304 4.16536C78.6631 4.36555 78.7713 4.5456 78.9328 4.66844C79.0942 4.79129 79.2965 4.8476 79.4982 4.82578C79.6999 4.80396 79.8855 4.70568 80.0169 4.55115C80.1484 4.39663 80.2155 4.19761 80.2047 3.99505C80.1938 3.7925 80.1058 3.6018 79.9586 3.46221C79.8114 3.32262 79.6163 3.24474 79.4135 3.2446Z" fill="#292A2E"/>
<path d="M81.0753 3.07173C81.1731 2.54195 80.6093 1.99382 79.8161 1.84746C79.0229 1.70109 78.3006 2.01192 78.2029 2.5417C78.1051 3.07147 78.6689 3.6196 79.4621 3.76596C80.2553 3.91233 80.9775 3.60151 81.0753 3.07173Z" fill="white"/>
<path d="M79.8527 3.95746C79.7122 3.95723 79.572 3.94425 79.4339 3.91868C79.0438 3.85397 78.6811 3.67684 78.3902 3.40901C78.2629 3.30038 78.165 3.1614 78.1056 3.00492C78.0462 2.84845 78.0272 2.67952 78.0504 2.51376C78.0879 2.35065 78.166 2.19964 78.2773 2.07467C78.3886 1.9497 78.5297 1.8548 78.6874 1.79873C79.0563 1.65938 79.4563 1.62356 79.8442 1.69513C80.232 1.7667 80.5929 1.94294 80.8878 2.20479C81.0152 2.31342 81.113 2.4524 81.1724 2.60888C81.2318 2.76536 81.2508 2.93429 81.2277 3.10005C81.1901 3.26315 81.1121 3.41416 81.0007 3.53913C80.8894 3.66411 80.7483 3.75901 80.5906 3.81507C80.3568 3.91186 80.1057 3.96029 79.8527 3.95746ZM79.4243 1.96624C79.2137 1.96356 79.0047 2.0035 78.8099 2.08366C78.6997 2.12055 78.6004 2.18435 78.521 2.26928C78.4417 2.35421 78.3848 2.45759 78.3554 2.57006C78.3427 2.68559 78.359 2.80247 78.4028 2.91012C78.4466 3.01778 78.5166 3.1128 78.6064 3.18659C78.8573 3.40557 79.1625 3.55301 79.4899 3.61345C79.8174 3.6739 80.1551 3.64513 80.4676 3.53015C80.5779 3.49326 80.6772 3.42946 80.7565 3.34453C80.8359 3.2596 80.8928 3.15622 80.9221 3.04374C80.9349 2.92821 80.9187 2.8113 80.8749 2.70363C80.831 2.59597 80.761 2.50095 80.6711 2.42721C80.4242 2.20196 80.117 2.05358 79.7871 2.00021C79.6676 1.97796 79.5464 1.96659 79.4249 1.96624H79.4243Z" fill="#292A2E"/>
<path d="M79.46 1.81175L79.1481 3.68323L79.6083 3.78808L79.9942 1.88822L79.46 1.81175Z" fill="#292A2E"/>
<path d="M81.3297 3.82516C81.413 3.82516 81.4805 3.75766 81.4805 3.6744C81.4805 3.59113 81.413 3.52364 81.3297 3.52364C81.2465 3.52364 81.179 3.59113 81.179 3.6744C81.179 3.75766 81.2465 3.82516 81.3297 3.82516Z" fill="#292A2E"/>
<path d="M81.5925 3.05337C81.6758 3.05337 81.7433 2.98587 81.7433 2.90261C81.7433 2.81934 81.6758 2.75185 81.5925 2.75185C81.5093 2.75185 81.4418 2.81934 81.4418 2.90261C81.4418 2.98587 81.5093 3.05337 81.5925 3.05337Z" fill="#292A2E"/>
</svg>
