<svg width="88" height="72" viewBox="0 0 88 72" fill="none" xmlns="http://www.w3.org/2000/svg">
<path opacity="0.1" d="M86.8843 48.9151C84.52 36.9929 70.6687 27.4643 67.9671 15.0405C63.057 -0.765908 46.8729 -3.26493 36.3561 3.59979C19.6923 14.477 37.4691 17.1763 4.79678 42.9112C-3.27077 49.2656 -0.700085 77.3157 24.6799 70.8783C38.3383 67.4139 42.4904 66.9278 48.6341 66.3574C64.1193 64.9197 90.8529 68.9281 86.8843 48.9151Z" fill="#004877"/>
<path d="M68.3852 51.903L44.4512 64.5438L20.5533 51.903V32.8145H68.3852V51.903Z" fill="white"/>
<path d="M44.4512 64.7377C44.4196 64.7377 44.3884 64.73 44.3605 64.715L20.4634 52.0743C20.4323 52.0579 20.4063 52.0333 20.3881 52.0033C20.3699 51.9732 20.3602 51.9388 20.3601 51.9037V32.8145C20.3601 32.7631 20.3805 32.7138 20.4169 32.6774C20.4533 32.641 20.5026 32.6206 20.554 32.6206H68.3852C68.4366 32.6206 68.4859 32.641 68.5223 32.6774C68.5587 32.7138 68.5791 32.7631 68.5791 32.8145V51.903C68.579 51.9382 68.5693 51.9726 68.5511 52.0027C68.5329 52.0327 68.5069 52.0573 68.4758 52.0737L44.5418 64.7146C44.514 64.7296 44.4828 64.7375 44.4512 64.7377ZM20.7472 51.7866L44.4512 64.3247L68.1913 51.7863V33.0084H20.7472V51.7866Z" fill="#0C1B2E"/>
<path d="M68.3852 28.7183L44.4512 16.0776L55.2063 10.8936L79.1402 23.5345L68.3852 28.7183Z" fill="white"/>
<path d="M68.3852 28.9123C68.3537 28.9123 68.3226 28.9046 68.2946 28.8899L44.3606 16.249C44.3289 16.2322 44.3025 16.207 44.2843 16.1761C44.2661 16.1452 44.2568 16.1098 44.2574 16.074C44.2581 16.0381 44.2687 16.0031 44.288 15.9729C44.3074 15.9427 44.3347 15.9184 44.367 15.9028L55.122 10.7188C55.1494 10.7055 55.1794 10.6989 55.2098 10.6995C55.2402 10.7001 55.27 10.7078 55.2968 10.7221L79.2308 23.363C79.2625 23.3797 79.289 23.405 79.3072 23.4359C79.3254 23.4667 79.3347 23.5021 79.3341 23.538C79.3334 23.5738 79.3228 23.6088 79.3035 23.639C79.2841 23.6692 79.2568 23.6934 79.2244 23.709L68.4694 28.893C68.4432 28.9057 68.4144 28.9123 68.3852 28.9123ZM44.8813 16.0852L68.3892 28.5009L78.7101 23.5263L55.2022 11.1109L44.8813 16.0852Z" fill="#0C1B2E"/>
<path d="M20.5534 28.7183L44.4873 16.0776L33.7323 10.8936L9.79834 23.5345L20.5534 28.7183Z" fill="white"/>
<path d="M20.5534 28.9123C20.5242 28.9123 20.4954 28.9057 20.4691 28.893L9.71475 23.709C9.68244 23.6934 9.65509 23.6692 9.63574 23.639C9.61639 23.6088 9.60579 23.5738 9.60514 23.538C9.60448 23.5021 9.61378 23.4667 9.63201 23.4359C9.65024 23.405 9.67668 23.3797 9.70839 23.363L33.6424 10.7221C33.6692 10.7078 33.699 10.7001 33.7294 10.6995C33.7598 10.6989 33.7898 10.7055 33.8172 10.7188L44.5722 15.9028C44.6045 15.9184 44.6318 15.9427 44.6512 15.9729C44.6705 16.0031 44.6811 16.0381 44.6818 16.074C44.6824 16.1098 44.6731 16.1452 44.6549 16.1761C44.6367 16.207 44.6103 16.2322 44.5786 16.249L20.6446 28.8899C20.6165 28.9047 20.5851 28.9124 20.5534 28.9123ZM10.2284 23.5266L20.5493 28.5012L44.0573 16.0855L33.7364 11.1109L10.2284 23.5266Z" fill="#0C1B2E"/>
<path d="M20.5534 28.7185L44.4874 41.3594L32.1813 48.0943L8.24731 35.4536L20.5534 28.7185Z" fill="white"/>
<path d="M32.1813 48.2882C32.1497 48.2882 32.1186 48.2805 32.0907 48.2657L8.15675 35.6248C8.12585 35.6084 8.09996 35.5839 8.08182 35.554C8.06368 35.5241 8.05397 35.4899 8.05372 35.4549C8.05346 35.4199 8.06267 35.3855 8.08038 35.3554C8.09808 35.3252 8.12361 35.3004 8.15427 35.2835L20.4603 28.5485C20.4884 28.5331 20.5199 28.5249 20.552 28.5247C20.584 28.5244 20.6157 28.5322 20.644 28.5473L44.578 41.1882C44.6089 41.2046 44.6347 41.229 44.6529 41.2589C44.671 41.2888 44.6807 41.3231 44.681 41.358C44.6812 41.393 44.672 41.4274 44.6543 41.4576C44.6366 41.4877 44.6111 41.5126 44.5804 41.5294L32.2744 48.2644C32.2458 48.28 32.2138 48.2882 32.1813 48.2882ZM8.65681 35.4504L32.1796 47.8742L44.0781 41.3624L20.5551 28.9386L8.65681 35.4504Z" fill="#0C1B2E"/>
<path d="M68.3852 28.7185L44.4512 41.3594L56.7573 48.0943L80.6913 35.4536L68.3852 28.7185Z" fill="white"/>
<path d="M56.7576 48.2882C56.7251 48.2882 56.6931 48.28 56.6645 48.2644L44.3585 41.5294C44.3278 41.5126 44.3023 41.4877 44.2846 41.4576C44.2669 41.4274 44.2577 41.393 44.2579 41.358C44.2582 41.3231 44.2679 41.2888 44.286 41.2589C44.3042 41.229 44.3301 41.2046 44.361 41.1882L68.295 28.5473C68.3233 28.5322 68.3549 28.5244 68.3869 28.5247C68.419 28.5249 68.4505 28.5331 68.4786 28.5485L80.7847 35.2835C80.8153 35.3004 80.8408 35.3252 80.8586 35.3554C80.8763 35.3855 80.8855 35.4199 80.8852 35.4549C80.885 35.4899 80.8753 35.5241 80.8571 35.554C80.839 35.5839 80.8131 35.6084 80.7822 35.6248L56.8482 48.2657C56.8203 48.2805 56.7892 48.2882 56.7576 48.2882ZM44.8612 41.3624L56.7595 47.8742L80.2824 35.4504L68.384 28.9386L44.8612 41.3624Z" fill="#0C1B2E"/>
<path d="M44.4874 16.0776L20.5534 28.7184L44.4513 41.3593L68.3852 28.7184L44.4874 16.0776Z" fill="#0C1B2E"/>
<path d="M44.6451 41.3591H44.2574V64.5438H44.6451V41.3591Z" fill="#0C1B2E"/>
</svg>
